<svg width="1024" height="1024" viewBox="0 0 1024 1024" fill="none" xmlns="http://www.w3.org/2000/svg">
<g clip-path="url(#clip0_1_2)">
<g filter="url(#filter0_dd_1_2)">
<rect x="100" y="100" width="824" height="824" rx="185" fill="white"/>
</g>
<mask id="mask0_1_2" style="mask-type:alpha" maskUnits="userSpaceOnUse" x="100" y="100" width="825" height="824">
<rect x="100" y="100" width="824" height="824" rx="185" fill="white"/>
</mask>
<g mask="url(#mask0_1_2)">
<g clip-path="url(#clip1_1_2)">
<path d="M99 100H928V929H99V100Z" fill="#FDFBED"/>
<path d="M568.153 294.761C570.143 293.275 574.047 290.005 576.279 289.549C577.395 289.83 576.92 289.563 577.737 290.41C577.853 290.775 578.041 291.389 577.85 291.749C572.861 301.18 566.556 318.113 557.883 324.061C557.137 329.196 553.049 335.392 548.038 337.17C545.628 344.397 544.04 349.61 537.199 353.732C535.79 361.309 532.292 369.037 524.542 371.82C523.993 381.626 521.491 388.465 512.153 392.829C510.096 398.537 508.774 401.006 505.389 406.163C519.12 410.43 526.538 417.216 534.108 429.144C540.814 430.717 547.748 431.066 554.578 430.175C566.013 428.711 575.52 423.616 587.553 426.984C606.972 432.418 616.382 452.936 611.624 471.816C610.154 477.597 608.712 480.844 604.532 485.17C604.917 489.263 603.747 494.858 601.116 498.097C599.429 500.191 596.927 501.464 594.242 501.595C592.573 501.683 590.933 500.953 589.387 500.787C588.492 500.691 586.321 501.473 585.265 501.421C579.84 501.155 575.362 497.59 571.454 494.401C571.975 502.817 572.336 511.031 575.35 519.048C576.307 521.594 577.309 524.031 578.405 526.542C579.594 529.263 581.993 534.281 579.569 536.901C577.744 538.873 573.851 540.586 571.188 540.672C565.764 540.931 560.227 537.806 556.346 534.291C547.604 526.374 544.164 512.109 543.696 500.774C543.22 489.248 546.321 476.954 551.328 466.607C553.203 462.734 555.599 459.082 556.993 454.963C556.485 452.949 555.144 444.916 557.346 443.867C557.613 443.966 558.28 444.091 558.294 444.42C558.99 461.492 566.474 477.996 582.551 485.618C592.531 490.351 601.348 484.878 605.254 475.504C608.882 466.942 608.861 457.271 605.196 448.725C602.177 441.58 596.152 435.658 588.968 432.788C578.622 428.655 568.21 432.755 557.942 434.677C552.885 435.623 545.795 435.864 540.693 435.229C529.425 433.781 518.519 430.28 508.515 424.899C505.36 423.222 500.711 420.203 497.817 418.869C495.4 425.886 489.961 436.598 483.831 441.066C483.454 430.426 482.558 422.079 479.063 411.935C478.198 421.97 475.013 434.091 470.528 442.982C459.89 464.073 441.897 485.955 418.552 492.767C421.866 486.798 425.943 480.784 429.025 474.783C433.758 465.566 439.795 452.552 441.524 442.521C432.785 420.653 419.127 409.363 402.43 393.918C401.416 413.696 401.45 432.463 410.529 450.924C412.181 454.282 414.95 458.001 417.153 461.069C413.552 472.813 405.375 487.104 398.527 497.262C398.36 534.352 407.729 573.406 434.5 600.596C446.968 613.26 461.34 618.125 475.003 629.56C496.808 647.808 508.661 665.283 519.566 691.041C524.885 703.408 529.11 716.217 532.192 729.321C533.599 735.131 539.25 760.8 536.993 765.338L536.516 765.53C534.927 764.828 533.502 761.515 532.483 760.081C514.892 735.339 487.737 720.592 460.316 709.162C454.368 706.683 447.491 704.181 441.759 701.367C457.122 718.856 476.537 743.981 481.133 768.211C481.168 768.397 480.973 768.783 480.888 768.972L480.419 769.149C477.747 767.857 475.514 765.247 473.055 763.864C456.295 754.431 437.015 749.292 419.88 740.699C423.78 752.658 430.574 764.327 437.435 774.834C438.448 776.386 441.66 780.657 441.721 782.205C441.258 782.67 441.522 782.529 440.956 782.677C438.666 782.522 417.208 782.37 416.352 782.794C414.55 783.434 410.779 783.037 408.765 783.117C383.288 784.125 357.819 777.019 339.452 758.571C334.954 754.052 331.355 749.279 327.649 743.966C330.895 755.228 334.126 768.948 338.137 779.669L330.914 779.711C327.451 768.295 323.813 757.209 321.138 745.543C318.801 736.652 317.987 726.793 315.406 718.046C312.447 708.017 311.109 699.522 310.082 689.158C304.48 715.198 308.227 742.38 320.666 765.933C293.005 759.443 273.74 731.718 268.63 705.048C264.619 684.107 269.232 662.349 278.469 643.373C281.805 636.519 286.504 629.351 290.749 623.068C290.12 622.78 288.646 622.54 287.873 622.333C284.796 621.509 283.415 620.766 280.812 619.037C276.482 628.22 275.14 633.593 272.659 643.126C271.785 639.483 271.414 632.901 271.205 629.079C269.847 606.67 273.567 584.244 282.088 563.474C280.032 560.775 279.105 543.919 279.056 539.976C278.951 531.551 278.653 520.153 280.539 511.933C264.813 506.686 246.904 501.712 238.246 485.679C251.084 488.334 271.27 482.461 282.97 476.562C287.185 474.436 291.029 472.099 294.989 469.534C294.995 469.413 295.003 469.293 295.006 469.173C295.179 463.234 305.203 441.641 308.461 435.118C297.669 430.79 289.616 424.158 284.208 413.659C296.526 420.3 307.143 420.622 320.79 417.368C321.622 414.585 328.137 405.469 330.042 402.543C337.016 391.835 346.024 381.566 354.927 372.424C378.973 347.3 407.745 327.172 439.591 313.197C474.48 297.925 512.464 291.051 550.492 293.127C553.797 293.299 565.557 293.734 568.153 294.761Z" fill="#260D4A"/>
<path d="M320.79 417.368C321.621 414.585 328.136 405.469 330.042 402.543C337.016 391.835 346.024 381.566 354.927 372.424C378.973 347.3 407.745 327.172 439.591 313.197C474.479 297.926 512.464 291.051 550.492 293.127C553.797 293.299 565.557 293.735 568.153 294.762C562.916 299.017 559.239 301.747 555.893 307.722C549.545 310.599 547.171 313.824 544.371 320.184C539.108 321.191 532.097 328.908 530.649 333.92C522.293 337.495 517.682 342.669 515.665 351.567C508.493 354.466 506.166 359.642 503.582 366.434C499.017 367.223 495.171 370.887 492.613 374.57C491.631 376.002 490.744 377.496 489.956 379.043C487.443 370.597 484.404 361.475 481.269 353.207C480.648 351.568 478.582 349.494 476.526 350.325C471.483 352.9 469.246 362.569 467.023 367.433C465.621 370.499 464.217 374.716 463.406 377.591L459.427 377.171C450.132 367.627 438.518 362.191 425.081 361.864C380.706 360.786 360.28 407.641 320.79 417.368Z" fill="#FCEFB7"/>
<path d="M416.352 782.794C414.941 780.921 410.802 780.288 408.248 779.448C383.62 771.433 363.163 754.001 351.34 730.957C335.98 700.525 337.505 662.462 347.927 630.731C347.671 633.298 347.779 635.796 347.785 638.321C347.883 679.488 371.27 713.981 406.887 733.376C410.173 735.165 414.405 737.51 417.574 739.561C422.159 753.306 432.484 771.015 440.956 782.677C438.666 782.522 417.208 782.37 416.352 782.794Z" fill="#945BA6"/>
<path d="M280.539 511.933C293.939 515.371 301.131 516.547 315.122 516.765C300.781 528.706 289.411 546.487 282.088 563.474C280.032 560.775 279.105 543.919 279.056 539.976C278.951 531.551 278.653 520.153 280.539 511.933Z" fill="#FCEFB7"/>
<path d="M280.812 619.037C291.675 597.944 306.915 582.259 328.284 571.813C324.872 575.914 321.548 580.977 318.371 585.345L298.731 611.979C296.147 615.478 293.354 619.759 290.749 623.068C290.12 622.78 288.646 622.54 287.873 622.333C284.796 621.509 283.415 620.766 280.812 619.037Z" fill="#FCEFB7"/>
<path d="M308.461 435.118C318.018 438.358 322.242 438.584 332.103 438.049C319.052 451.098 310.359 459.367 294.99 469.534C294.995 469.413 295.003 469.293 295.006 469.173C295.179 463.234 305.203 441.641 308.461 435.118Z" fill="#FCEFB7"/>
<path d="M395.557 501.569C395.593 538.793 405.109 574.697 431.32 602.302C440.156 611.608 449.456 616.102 459.938 622.832C478.849 635.106 494.517 651.765 505.608 671.393C507.975 675.497 515.249 688.315 516.336 692.768C516.773 694.22 517.137 694.207 517.004 695.791C517.45 696.446 518.596 697.778 518.83 698.355C523.261 709.262 527.378 721.825 529.513 733.369L529.324 733.679L529.182 733.706C518.309 716.986 503.54 706.043 486.036 696.929C481.639 694.639 476.39 692.064 471.765 690.302L471.146 690.281L470.934 690.501L470.56 690.38L470.27 690.504L470.962 690.956L470.695 691.232C475.303 693.713 481.139 696.018 486.083 698.624C503.877 708 516.5 717.831 528.09 734.331C532.573 741.481 532.35 748.19 534.053 756.507C517.047 733.156 490.439 717.701 464.247 706.998C429.154 692.659 400.45 683.563 381.041 647.98C370.448 628.559 367.128 606.892 367.523 584.943C367.614 579.871 367.988 570.183 369.378 565.407C370.056 563.401 369.435 562.114 370.099 561.1C372.385 550.678 374.8 541.715 379.074 531.829C380.03 529.619 381.135 526.445 382.313 524.427L382.566 524.485L382.856 525.974C382.853 523.985 382.756 523.46 383.981 521.958C385.056 518.76 393.406 504.962 395.557 501.569Z" fill="#F5C45C"/>
<path d="M395.557 501.569C395.593 538.793 405.109 574.697 431.32 602.302C440.156 611.608 449.456 616.102 459.938 622.832C478.849 635.106 494.517 651.765 505.608 671.393C507.975 675.497 515.249 688.315 516.336 692.768C516.773 694.22 517.137 694.207 517.004 695.791C503.576 678.727 487.027 665.109 468.008 654.713C453.571 646.821 443.059 642.039 430.354 631.392C422.93 625.283 416.366 618.198 410.841 610.33C395.413 588.483 385.51 556.236 383.143 529.729C382.942 528.3 382.895 527.42 382.856 525.974C382.853 523.985 382.756 523.46 383.981 521.958C385.056 518.76 393.406 504.962 395.557 501.569Z" fill="#79AA9F"/>
<path d="M383.143 529.729L384.37 527.96C388.729 566.571 401.166 606.243 432.607 631.471C444.713 641.185 454.896 646.001 468.413 653.392C487.472 663.813 502.647 675.932 516.336 692.768C516.773 694.22 517.137 694.207 517.004 695.791C503.576 678.728 487.027 665.109 468.008 654.713C453.571 646.822 443.059 642.039 430.354 631.392C422.93 625.283 416.366 618.198 410.841 610.33C395.413 588.483 385.51 556.236 383.143 529.729Z" fill="#260D4A"/>
<path d="M383.981 521.958C384.093 523.96 384.223 525.961 384.37 527.96L383.143 529.729C382.942 528.301 382.895 527.42 382.856 525.974C382.853 523.986 382.756 523.46 383.981 521.958Z" fill="#120A34"/>
<path d="M369.378 565.407C370.671 570.027 371.455 578.074 372.865 582.119C373.455 586.286 377.821 601.973 379.637 605.674C391.155 639.515 413.82 665.448 446.072 680.602C447.586 681.314 451.273 683.17 452.738 683.599C453.448 683.331 454.089 683.266 454.835 683.147C459.998 685.341 466.803 687.975 471.765 690.302L471.146 690.281L470.934 690.501L470.56 690.38L470.27 690.504L470.962 690.956L470.695 691.232C475.303 693.713 481.139 696.018 486.083 698.624C503.877 708 516.5 717.831 528.09 734.331C532.573 741.481 532.35 748.19 534.053 756.507C517.047 733.156 490.439 717.701 464.247 706.998C429.154 692.659 400.45 683.563 381.041 647.98C370.448 628.559 367.128 606.891 367.523 584.943C367.614 579.871 367.988 570.183 369.378 565.407Z" fill="#E67079"/>
<path d="M454.835 683.147C459.998 685.342 466.803 687.975 471.765 690.302L471.146 690.281L470.934 690.501L470.56 690.38L470.27 690.504L470.962 690.956L470.695 691.232C468.967 690.961 454.845 684.702 452.738 683.599C453.448 683.331 454.089 683.266 454.835 683.147Z" fill="#260D4A"/>
<path d="M372.865 582.119C373.188 582.372 373.409 582.556 373.715 582.821L374.085 581.215C375.357 586.878 376.645 592.341 378.472 597.854C378.826 598.922 380.427 603.422 380.471 604.275C383.45 611.177 385.333 616.967 388.896 623.752C404.781 653.998 424.51 669.344 454.835 683.147C454.089 683.266 453.448 683.331 452.738 683.599C451.273 683.171 447.586 681.314 446.072 680.602C413.82 665.448 391.156 639.515 379.637 605.674C377.821 601.973 373.455 586.286 372.865 582.119Z" fill="#260D4A"/>
<path d="M369.378 565.407C370.056 563.401 369.435 562.114 370.099 561.1C371.31 567.823 372.903 574.512 374.085 581.215L373.715 582.821C373.409 582.556 373.188 582.372 372.865 582.119C371.455 578.074 370.671 570.027 369.378 565.407Z" fill="#120A34"/>
<path d="M247.997 490.926L247.054 490.178C247.487 489.899 251.852 489.812 252.671 489.73C285.87 486.415 313.934 462.476 335.99 439.464C355.072 419.554 373.236 399.735 399.235 389.52C397.324 406.009 396.915 417.652 400.163 434.213L400.414 435.505C401.344 438.244 401.919 441.337 402.815 444.083C384.963 462.254 374.407 478.483 364.964 502.345C353.462 509.671 335.715 512.377 322.081 512.886C298.702 513.759 273.458 508.229 253.339 496.024C252.324 495.408 249.098 493.19 248.662 492.17L247.997 490.926Z" fill="#F5C45C"/>
<path d="M400.414 435.505C401.344 438.244 401.919 441.337 402.815 444.083C384.963 462.254 374.407 478.483 364.964 502.345C353.462 509.671 335.715 512.377 322.081 512.886C298.702 513.759 273.458 508.229 253.339 496.024C252.324 495.408 249.098 493.19 248.662 492.17C250.331 492.685 252.331 493.359 253.992 493.789C266.284 495.837 278.846 495.623 291.06 493.154C328.402 487.202 365.212 457.711 396.276 437.857L400.414 435.505Z" fill="#E67079"/>
<path d="M288.114 492.464C312.643 487.479 331.045 478.768 352.39 465.416C366.926 456.324 380.581 445.98 395.202 436.938L396.276 437.857C365.212 457.711 328.402 487.202 291.06 493.154C278.846 495.623 266.284 495.837 253.992 493.788L254.703 492.571C264.61 494.03 274.046 494.297 283.977 492.994C285.21 492.832 286.917 492.524 288.114 492.464Z" fill="#260D4A"/>
<path d="M400.163 434.213L400.414 435.505L396.276 437.857L395.202 436.938C396.819 435.913 398.465 435.093 400.163 434.213Z" fill="#120A34"/>
<path d="M247.998 490.926C250.282 491.717 252.348 492.091 254.703 492.571L253.992 493.788C252.331 493.359 250.331 492.684 248.662 492.17L247.998 490.926Z" fill="#070310"/>
<path d="M355.854 574.586C356.399 575.357 356.609 580.197 356.38 581.153C354.576 588.696 352.291 596.134 350.8 603.754C350.066 607.463 349.475 611.198 349.028 614.952C348.644 618.345 348.357 622.665 347.576 625.922C346.591 629.722 345.383 633.5 344.377 637.293C336.52 666.906 335.34 699.095 348.155 727.56C357.706 748.773 374.748 766.221 395.945 776.031C400.197 777.999 404.183 779.497 408.567 781.165C400.644 780.567 394.913 779.754 387.008 778.455C337.334 769.267 313.431 727.153 314.007 679.547C314.504 638.468 332.304 606.936 355.854 574.586Z" fill="#79AA9F"/>
<path d="M356.839 584.143C357.277 585.395 358.089 593.533 358.347 595.404C359.316 602.445 360.372 608.373 362.289 615.229C364.985 624.526 368.652 633.514 373.231 642.042C374.881 645.178 377.321 648.628 378.752 651.751C379.99 654.936 380.1 658.683 380.776 662.002C387.94 697.121 415.547 722.49 446.192 738.496C454.563 742.869 463.206 746.19 471.8 750.012C473.852 754.254 475.41 758.211 477.005 762.628C475.391 761.532 473.61 760.504 471.929 759.496C464.165 755.259 453.769 751.471 445.491 748.037C436.383 744.26 426.913 741.016 417.897 736.934C396.889 727.42 379.211 714.174 366.336 694.911C349.057 669.059 346.523 639.552 351.334 609.506C352.752 600.647 355.039 592.788 356.839 584.143Z" fill="#E67079"/>
<path d="M355.117 559.35C355.533 559.903 355.766 569.278 355.994 570.86C354.51 573.403 351.894 576.617 350.047 579.022C346.562 583.485 343.164 588.017 339.857 592.614C337.791 595.546 335.636 598.644 333.716 601.686C314.135 632.72 290.304 664.128 289.422 702.415C289.069 717.737 291.948 732.589 299.551 745.993C301.89 750.116 304.687 753.629 307.562 757.337C304.038 754.65 300.621 752.089 297.281 749.167C292.144 744.488 287.636 739.162 283.871 733.321C271.796 714.687 268.368 691.654 273.076 670.135C277.957 647.822 289.018 631.923 302.094 613.912L320.505 588.719C324.785 582.828 330.185 574.62 334.877 569.15C335.847 568.019 345.271 564.444 347.429 563.46C350.418 562.097 352.039 561.329 355.117 559.35Z" fill="#E67079"/>
<path d="M294.448 421.486C303.049 423.533 310.63 423.422 319.316 421.822C360.39 414.25 380.775 365.725 424.459 366.02C437.001 366.105 449.083 369.643 458.197 378.511C455.024 378.573 454.204 378.256 451.588 379.901L451.576 381.432C448.268 378.929 437.26 373.065 433.412 374.029C435.218 375.087 436.668 376.028 438.145 377.555C439.553 378.846 441.28 380.629 442.348 382.214L441.173 383.078C442.055 384.36 442.813 385.293 443.316 386.767L443.22 387.119L442.519 388.382C444.484 389.204 444.606 389.153 445.011 391.257C446.449 398.482 446.716 405.148 446.521 412.5C442.582 412.752 434.502 414.216 431.014 415.961C430.423 414.992 428.121 412.468 427.278 411.519C419.593 402.942 410.938 395.287 401.488 388.705L401.461 387.974C399.796 387.861 398.072 389.356 397.283 389.008L397.269 388.806C380.338 394.421 363.583 410.16 350.669 422.076C347.924 424.202 342.893 431.399 339.662 432.326C323.927 436.841 305.412 432.997 294.448 421.486Z" fill="#E67079"/>
<path d="M432.197 384.233C435.955 384.544 439.727 385.741 443.22 387.119L442.519 388.383C444.484 389.204 444.606 389.153 445.011 391.257C446.449 398.482 446.716 405.148 446.521 412.5C442.582 412.752 434.502 414.216 431.014 415.961C430.423 414.992 428.121 412.468 427.278 411.519C419.593 402.942 410.938 395.287 401.488 388.705C404.858 387.03 409.224 386.561 412.814 385.537C420.009 384.827 423.995 384.597 431.25 385.297C432.201 385.124 431.902 384.911 432.635 384.753L432.209 384.541L432.197 384.233Z" fill="#F5C45C"/>
<path d="M432.197 384.233C435.955 384.544 439.727 385.741 443.22 387.119L442.519 388.383C438.354 386.622 435.63 386.051 431.25 385.297C432.201 385.124 431.902 384.911 432.635 384.753L432.209 384.541L432.197 384.233Z" fill="#120A34"/>
<path d="M431.932 371.783C438.231 372.859 446.642 375.738 451.588 379.901L451.576 381.432C448.268 378.929 437.26 373.065 433.412 374.029L433.23 373.966C432.793 372.828 432.706 372.755 431.932 371.783Z" fill="url(#paint0_linear_1_2)"/>
<path d="M413.375 384.214C417.271 383.745 428.885 382.864 432.197 384.233L432.209 384.541L432.635 384.753C431.902 384.911 432.201 385.124 431.25 385.297C423.995 384.597 420.009 384.826 412.814 385.537L412.418 385.307L413.22 384.929L413.375 384.214Z" fill="#120A34"/>
<path d="M397.269 388.806C401.041 386.781 409.053 385.026 413.375 384.214L413.22 384.929L412.418 385.307L412.814 385.537C409.224 386.561 404.858 387.03 401.488 388.705L401.461 387.974C399.796 387.861 398.071 389.356 397.283 389.008L397.269 388.806Z" fill="#260D4A"/>
<path d="M438.145 377.555C439.553 378.846 441.28 380.629 442.348 382.214L441.173 383.078C439.902 381.397 438.743 380.275 437.263 378.78C437.625 378.029 437.561 378.207 438.145 377.555Z" fill="#120A34"/>
<path d="M433.23 373.966L433.412 374.029C435.218 375.087 436.668 376.028 438.145 377.555C437.561 378.207 437.625 378.029 437.263 378.781C435.884 377.416 434.294 376.242 432.763 375.046L433.23 373.966Z" fill="#260D4A"/>
<path d="M432.763 375.046C431.572 374.369 430.072 373.637 429.28 372.579L429.384 372.059C430.186 371.525 430.927 371.719 431.932 371.783C432.706 372.755 432.793 372.828 433.23 373.966L432.763 375.046Z" fill="#260D4A"/>
<path d="M433.412 374.029C437.26 373.065 448.268 378.929 451.576 381.432C451.81 381.656 452.413 382.266 452.642 382.417C453.136 382.149 453.121 382.255 453.788 382.251C460.538 382.696 461.861 383.907 466.961 388.189C470.826 391.873 476.69 400.632 477.147 405.824C477.221 432.452 465.513 454.038 447.266 472.92C442.039 478.33 432.823 485.923 426.056 488.658L427.819 486.708C427.057 486.633 426.941 486.717 426.376 486.248L426.591 485.614C426.87 484.503 427.966 482.647 428.599 481.646C437.567 467.49 442.122 451.354 445.395 435.015C444.7 431.975 446.045 428.199 446.171 424.951C446.408 418.892 448.866 409.144 447.184 403.26C447.208 407.896 445.774 430.573 443.7 433.96C443.545 434.368 443.387 434.776 443.226 435.182C442.735 435.009 441.854 432.34 441.504 431.526C439.195 426.159 435.553 421.857 432.283 417.099L432.417 416.757C431.661 416.656 431.617 416.482 431.014 415.961C434.502 414.216 442.582 412.752 446.521 412.5C446.716 405.148 446.449 398.482 445.011 391.257C444.606 389.153 444.484 389.204 442.519 388.382L443.22 387.119L443.316 386.767C442.813 385.293 442.055 384.36 441.173 383.078L442.348 382.214C441.28 380.629 439.553 378.846 438.145 377.555C436.668 376.028 435.218 375.087 433.412 374.029Z" fill="#945BA6"/>
<path d="M433.412 374.029C437.26 373.065 448.268 378.929 451.576 381.432C451.81 381.656 452.413 382.266 452.642 382.417C460.631 391.725 461.885 402.943 461.169 414.885C459.764 438.315 448.266 460.494 433.281 478.133C431.69 480.006 428.297 483.984 426.591 485.614C426.87 484.503 427.966 482.647 428.599 481.646C437.567 467.49 442.122 451.354 445.395 435.015C444.7 431.975 446.045 428.199 446.171 424.951C446.408 418.892 448.866 409.144 447.184 403.26C447.208 407.896 445.774 430.573 443.7 433.96C443.545 434.368 443.387 434.776 443.226 435.182C442.735 435.009 441.854 432.34 441.504 431.526C439.195 426.159 435.553 421.857 432.283 417.099L432.417 416.757C431.661 416.656 431.617 416.482 431.014 415.961C434.502 414.216 442.582 412.752 446.521 412.5C446.716 405.148 446.449 398.482 445.011 391.257C444.606 389.153 444.484 389.204 442.519 388.382L443.22 387.119L443.316 386.767C442.813 385.293 442.055 384.36 441.173 383.078L442.348 382.214C441.28 380.629 439.553 378.846 438.145 377.555C436.668 376.028 435.218 375.087 433.412 374.029Z" fill="#F5C45C"/>
<path d="M432.417 416.757C437.102 415.587 441.307 414.68 446.1 413.997C445.838 418.161 445.409 422.315 444.814 426.445C444.521 428.481 443.853 432.055 443.7 433.96C443.545 434.368 443.387 434.776 443.226 435.182C442.735 435.009 441.854 432.34 441.504 431.526C439.195 426.159 435.553 421.857 432.283 417.099L432.417 416.757Z" fill="#F6C0C0"/>
<path d="M442.348 382.214C443.927 384.453 445.35 386.551 446.075 389.24C448.862 402.4 448.73 421.889 445.395 435.015C444.7 431.975 446.045 428.199 446.171 424.951C446.408 418.892 448.866 409.144 447.184 403.26C447.208 407.896 445.774 430.573 443.7 433.96C443.853 432.055 444.521 428.481 444.814 426.445C445.409 422.315 445.838 418.162 446.1 413.997C441.307 414.68 437.102 415.587 432.417 416.757C431.661 416.656 431.617 416.482 431.014 415.961C434.502 414.216 442.582 412.752 446.521 412.5C446.716 405.148 446.449 398.482 445.011 391.257C444.606 389.153 444.484 389.204 442.519 388.382L443.22 387.119L443.316 386.767C442.813 385.293 442.055 384.36 441.173 383.078L442.348 382.214Z" fill="#120A34"/>
<path d="M452.642 382.418C453.136 382.149 453.121 382.256 453.788 382.251C459.659 387.575 462.294 398.628 462.65 406.338C463.8 431.219 453.199 454.347 438.66 473.944C435.408 478.327 431.102 482.496 427.819 486.708C427.057 486.633 426.941 486.717 426.376 486.248L426.591 485.614C428.297 483.984 431.69 480.006 433.281 478.133C448.266 460.494 459.764 438.315 461.169 414.885C461.885 402.944 460.631 391.725 452.642 382.418Z" fill="#120A34"/>
<path d="M365.156 612.151C353.763 564.653 357.061 515.34 382.877 472.988C389.849 461.548 394.682 455.942 403.562 446.08C406.489 453.061 408.07 456.202 413.249 461.953C408.493 474.4 399.763 489.123 392.402 500.317C371.496 532.105 359.63 567.979 364.821 606.236C365.082 608.161 365.272 610.021 365.767 611.916L365.156 612.151Z" fill="#E67079"/>
<path d="M381.432 656.397C383.258 657.859 386.752 663.481 388.524 665.615C398.689 677.858 411.619 687.661 425.998 694.442C429.865 696.265 433.889 697.887 437.596 699.984C450.036 713.685 463.101 731.268 470.943 747.986C435.793 734.855 398.568 710.613 385.756 673.665C383.926 668.386 381.945 661.998 381.432 656.397Z" fill="#945BA6"/>
<path d="M358.503 524.481C358.642 525.749 356.865 534.462 356.598 536.628C355.883 542.726 355.502 548.858 355.459 554.997C342.336 563.222 325.602 566.876 312.875 575.975C295.609 588.318 282.313 603.995 274.94 623.969C274.735 622.691 274.827 619.376 274.979 618.022C279.569 577.241 312.557 547.215 347.534 529.926C351.332 528.048 354.948 526.456 358.503 524.481Z" fill="#945BA6"/>
<path d="M362.29 508.032L362.675 508.147C362.596 509.268 361.64 511.997 361.305 513.301C360.496 516.454 359.724 519.597 358.97 522.765C351.678 526.506 345.783 529.047 338.402 533.224C309.161 549.774 284.831 572.667 275.756 605.965L275.656 606.099L275.482 605.977C276.046 599.328 278.118 588.532 279.858 581.946C285.558 560.368 296.962 539.783 312.761 523.966C314.709 522.016 319.564 517.928 321.936 516.582C335.145 516.369 350.317 513.659 362.29 508.032Z" fill="url(#paint1_linear_1_2)"/>
<path d="M322.335 622.486L322.639 623.115C320.077 629.309 317.893 634.747 315.839 641.128C312.016 651.683 311.456 663.462 309.414 674.159C305.367 695.354 301.911 714.037 306.833 735.505C309.198 745.824 312.055 753.389 316.97 762.926C302.376 751.58 295.667 739.503 292.312 721.174C285.878 686.035 302.866 650.613 322.335 622.486Z" fill="#945BA6"/>
<path d="M469.202 383.507C472.324 383.811 474.685 383.963 477.64 385.037C489.594 389.383 499.083 399.245 497.514 412.723C496.592 420.643 492.604 427.728 487.99 434.079C487.828 434.177 487.666 434.275 487.504 434.373L487.232 433.905C486.846 433.925 487.055 433.958 486.626 433.721L486.457 432.238L486.16 432.567C485.594 430.868 485.501 427.305 485.102 425.197C483.909 418.891 482.215 412.606 479.636 406.722C478.674 406.54 478.783 406.497 477.941 405.657L477.626 405.338L477.147 405.824C476.69 400.632 470.826 391.873 466.961 388.189C466.64 386.986 466.55 386.521 466.005 385.424L464.728 384.244L464.895 384.043L466.305 384.095C466.292 384.104 468.272 383.95 469.202 383.507Z" fill="#945BA6"/>
<path d="M466.005 385.424L464.728 384.244L464.895 384.042L466.305 384.095C467.876 384.753 469.9 385.485 471.364 386.262C486.41 394.251 488.687 415.542 486.635 430.204C486.557 430.926 486.49 431.507 486.457 432.238L486.16 432.567C485.594 430.868 485.501 427.305 485.102 425.197C483.909 418.891 482.215 412.605 479.636 406.721C478.674 406.54 478.783 406.497 477.941 405.657L477.626 405.338L477.147 405.824C476.69 400.632 470.826 391.873 466.961 388.189C466.64 386.986 466.55 386.521 466.005 385.424Z" fill="#F5C45C"/>
<path d="M466.005 385.424C472.487 391.028 476.477 398.849 479.636 406.722C478.674 406.54 478.783 406.497 477.941 405.657L477.626 405.338L477.147 405.824C476.69 400.632 470.826 391.873 466.961 388.189C466.64 386.986 466.55 386.521 466.005 385.424Z" fill="#120A34"/>
<path d="M466.305 384.095C466.292 384.104 468.272 383.95 469.202 383.507C470.877 384.382 473.045 385.277 474.541 386.391C487.401 395.967 490.237 415.736 487.926 430.497L486.635 430.204C488.687 415.542 486.41 394.251 471.364 386.262C469.9 385.485 467.876 384.753 466.305 384.095Z" fill="url(#paint2_linear_1_2)"/>
<path d="M486.457 432.238C486.49 431.507 486.557 430.926 486.635 430.204L487.926 430.496L487.232 433.905C486.846 433.924 487.055 433.958 486.626 433.721L486.457 432.238Z" fill="#070310"/>
<path d="M553.429 467.429C553.751 468.164 553.962 469.544 554.287 470.503C556.207 476.146 558.992 484.178 564.49 487.254C565.468 487.801 566.055 487.332 567.055 486.96C567.666 489.315 567.624 497.306 567.712 500.03C567.948 507.304 568.719 511.41 570.766 518.199C569.296 516.254 568.361 515.149 566.689 513.38C561.33 508.4 555.14 505.572 548.104 509.127C544.813 498.779 547.826 476.997 553.429 467.429Z" fill="#E67079"/>
<path d="M553.284 509.01C557.143 509.246 558.576 509.755 561.997 511.584C567.752 514.659 576.148 527.852 577.595 533.928C575.922 535.329 574.902 535.804 572.83 536.414C558.878 537.217 551.338 521.871 548.43 510.487C550.463 509.437 551.095 509.29 553.284 509.01Z" fill="#EE97B1"/>
<path d="M503.078 369.816C503.115 369.818 503.657 369.819 503.651 370.025C503.62 371.221 503.161 376.422 503.186 377.24C503.355 382.801 505.154 386.086 508.537 390.297C507.683 393.485 502.216 405.83 499.093 406.586L498.837 405.747C497.686 399.406 495.531 395.799 491.071 391.241C491.46 381.716 494.962 374.983 503.078 369.816Z" fill="#FDFBED"/>
<path d="M515.711 354.798C516.645 355.941 515.287 364.198 520.894 371.043C520.833 373.714 520.376 376.361 519.539 378.898C518.013 383.466 515.835 386.493 511.483 388.701C507.638 382.039 505.028 380.164 506.122 371.053C506.951 364.139 510.306 359.01 515.711 354.798Z" fill="#F5C45C"/>
<path d="M477.222 355.296C478.954 358.46 481.238 367.327 482.613 371.259C484.019 375.281 485.533 380.251 486.751 384.381C487.135 385.685 487.01 386.028 486.398 386.972C484.705 386.559 482.292 385.26 480.641 384.452C476.136 382.539 472.292 379.878 468.01 378.458C471.16 370.529 473.052 363.183 477.222 355.296Z" fill="#FDFBED"/>
<path d="M529.483 337.794C530.467 338.024 529.607 341.354 529.709 342.918C530.005 347.467 530.835 349.976 533.416 353.621C531.37 359.867 528.705 365.164 523.015 368.724C522.793 368.532 522.366 367.992 522.225 367.727C518.759 361.178 517.513 352.538 521.283 345.837C523.339 342.182 526.047 339.988 529.483 337.794Z" fill="#F5C45C"/>
<path d="M544.24 323.069C544.558 328.585 542.717 328.42 544.983 335.663C543.961 337.998 538.425 351.701 534.943 349.631C529.185 339.602 535.667 328.821 544.24 323.069Z" fill="#FDFBED"/>
<path d="M499.253 409.091C510.804 411.917 521.358 417.892 528.156 427.916C521.645 426.245 504.835 418.351 498.893 414.918L499.253 409.091Z" fill="#FDFBED"/>
<path d="M554.952 311.733C555.357 312.246 554.195 318.22 554.421 319.686C554.564 320.615 554.612 321.933 554.831 323.026C553.305 326.795 551.732 330.939 547.956 333.044C545.153 324.308 547.717 317.168 554.952 311.733Z" fill="#FDFBED"/>
<path d="M580.183 488.419C584.22 490.289 585.971 490.71 590.365 491.169C590.402 491.911 590.401 492.653 590.363 493.394C590.227 495.672 589.282 496.677 587.694 498.127C584.511 499.512 580.822 498.069 577.854 496.702C578.371 493.175 578.83 491.732 580.183 488.419Z" fill="#FDFBED"/>
<path d="M571.25 296.49C571.527 299.193 559.963 317.018 557.585 320.24C557.316 319.123 557.538 315.466 557.73 314.241C559.069 305.7 564.797 301.286 571.25 296.49Z" fill="#FDFBED"/>
<path d="M600.95 487.902L601.203 487.993C601.891 489.849 599.778 495.238 598.358 496.625C596.292 498.643 594.235 498.5 591.58 498.465L591.396 498.394C591.029 497.857 591.191 497.969 591.707 496.906C592.828 494.597 592.848 493.17 592.744 490.718C596.027 490.236 598.148 489.684 600.95 487.902Z" fill="#FDFBED"/>
<path d="M571.337 482.731C573.736 484.387 575.777 485.608 578.274 487.069L575.491 493.732L574.874 494.131C572.985 493.714 570.351 490.639 569.224 489.077C569.757 487.073 570.641 484.725 571.337 482.731Z" fill="#FDFBED"/>
<path d="M563.151 473.918C563.822 474.26 567.689 479.561 568.938 480.879C567.843 482.017 566.359 483.961 565.324 485.243L565.02 485.294C563.084 484.668 560.719 480.803 559.699 479.098C560.867 477.201 561.851 475.729 563.151 473.918Z" fill="#FDFBED"/>
<path d="M558.909 466.805C559.232 466.765 559.356 466.855 559.708 466.955C560.776 468.299 561.481 469.91 562.258 471.457L558.439 475.308L558.189 475.631C557.127 474.936 555.173 469.255 556.204 467.517C557.049 466.821 557.794 466.901 558.909 466.805Z" fill="#FDFBED"/>
<path d="M557.382 459.258C558.234 460.098 558.645 462.592 558.45 463.832C557.812 464.626 557.785 464.395 556.488 464.673L555.878 464.674C554.867 463.418 557.252 461.718 557.382 459.258Z" fill="#FDFBED"/>
<path d="M365.156 612.151L365.767 611.916C366.218 614.322 366.913 616.726 367.169 619.156C366.352 616.886 365.615 614.52 365.156 612.151Z" fill="#7F5083"/>
<path d="M324.306 619.413C323.897 620.379 323.151 622.291 322.639 623.114L322.335 622.486C323.019 621.229 323.466 620.577 324.306 619.413Z" fill="#7F5083"/>
<path d="M719.8 375.038C754.893 372.04 785.73 398.158 788.547 433.267C791.365 468.375 765.086 499.076 729.964 501.712C695.097 504.327 664.668 478.283 661.872 443.43C659.075 408.578 684.962 378.015 719.8 375.038Z" fill="#120A34"/>
<path d="M723.86 376.713C757.925 375.99 786.11 403.051 786.773 437.116C787.437 471.182 760.328 499.32 726.261 499.925C692.277 500.528 664.224 473.499 663.561 439.517C662.899 405.534 689.879 377.434 723.86 376.713Z" fill="#E67079"/>
<path d="M721.399 385.046C750.882 383.144 776.304 405.55 778.122 435.039C779.941 464.528 757.463 489.886 727.969 491.621C698.593 493.348 673.358 470.98 671.547 441.609C669.736 412.238 692.033 386.94 721.399 385.046Z" fill="#260D4A"/>
<path d="M719.225 387.245C747.486 384.136 772.901 404.562 775.945 432.829C778.99 461.096 758.506 486.465 730.232 489.445C702.049 492.415 676.779 472.012 673.745 443.835C670.71 415.659 691.056 390.343 719.225 387.245Z" fill="#FDFBED"/>
<path d="M722.187 399.821C723.475 400.272 723.385 400.012 724.05 400.917C725.527 411.599 724.034 423.707 725.321 434.469C725.428 435.363 725.966 436.315 726.405 437.101C734.144 441.305 741.978 445.259 749.693 449.452L748.599 456.823C741.759 451.899 734.998 446.621 728.273 441.536C726.638 440.305 725.306 438.906 723.186 438.586C722.758 438.521 721.842 437.911 721.94 437.505C723.572 430.72 722.194 423.085 722.317 416.064C722.353 414.018 722.118 401.838 721.882 401.346L722.187 399.821Z" fill="#260D4A"/>
<path d="M737.381 445.687C739.148 446.191 745.339 449.416 747.085 450.365C747.435 451.347 747.2 451.453 746.948 452.672C745.687 452.532 738.858 446.853 737.381 445.687Z" fill="#FDFBED"/>
<path d="M742.454 468.507C744.759 469.524 747.887 477.594 749.303 480.034C749.69 480.701 749.38 480.927 749.074 481.519C746.713 481.199 743.602 472.659 742.325 470.506C741.891 469.773 742.173 469.193 742.454 468.507Z" fill="#260D4A"/>
<path d="M723.081 472.561C723.938 472.617 724.003 472.624 724.826 472.86C725.475 474.056 725.198 482.825 725.144 484.717C724.571 484.709 723.999 484.673 723.425 484.644C722.973 483.564 723.015 474.234 723.081 472.561Z" fill="#260D4A"/>
<path d="M761.165 437.78C764.127 437.74 770.387 437.559 773.1 437.912C773.777 438.628 773.551 438.47 773.58 439.79C770.569 439.81 764.402 440.237 761.834 439.483C761.082 438.762 761.314 439.062 761.165 437.78Z" fill="#260D4A"/>
<path d="M757.006 456.724C759.111 457.569 765.443 461.155 766.975 463.029C767.262 463.381 766.979 463.7 766.761 464.325C765.138 463.956 758.122 459.804 756.865 458.208C756.621 457.898 756.895 457.221 757.006 456.724Z" fill="#260D4A"/>
<path d="M766.021 412.863C766.801 413.431 766.792 413.547 766.714 414.355C765.284 416.023 759.576 418.459 757.359 419.515C756.771 419.393 756.998 419.471 756.498 419.046L756.479 418.383C757.697 416.835 763.986 413.9 766.021 412.863Z" fill="#260D4A"/>
<path d="M747.588 396.882C748.685 397.133 748.592 396.991 749.091 397.816C749.024 400.25 746.27 404.868 745.088 407.137C744.163 406.926 744.534 407.146 743.898 406.519C743.68 404.917 746.731 398.82 747.588 396.882Z" fill="#260D4A"/>
<path d="M677.628 437.538C680.308 437.614 684.876 437.223 687.172 438.03C687.758 438.779 687.571 438.333 687.478 439.509C685.041 439.598 679.73 440.113 677.728 439.254C677.272 438.455 677.419 438.7 677.628 437.538Z" fill="#260D4A"/>
<path d="M699.809 398.948C699.968 398.95 700.126 398.952 700.284 398.954C702.602 399.08 705.676 406.764 705.372 408.543C704.727 408.468 704.33 408.567 704.047 408.178C702.976 406.701 699.858 400.632 699.809 398.948Z" fill="#260D4A"/>
<path d="M704.318 468.566C705.106 468.876 704.8 468.633 705.292 469.289C705.257 471.348 702.621 476.777 701.518 478.667C701.165 478.399 700.196 477.793 700.245 477.52C700.61 475.458 703.261 470.123 704.318 468.566Z" fill="#260D4A"/>
<path d="M683.982 412.779C686.25 413.097 690.551 416.374 692.347 418.002C692.739 418.356 692.526 418.606 692.419 419.372C690.645 419.501 685.979 415.978 684.471 414.714C683.804 414.155 683.951 413.527 683.982 412.779Z" fill="#260D4A"/>
<path d="M690.832 457.903C691.6 457.842 691.315 457.819 692.054 458.068L692.28 458.64C691.643 460.127 686.734 462.783 685.167 463.743L684.874 463.859C684.066 463.531 684.422 463.767 683.902 462.994C684.408 461.401 689.253 458.862 690.832 457.903Z" fill="#260D4A"/>
<path d="M722.575 389.519C722.978 389.608 723.865 389.791 723.952 390.214C724.37 392.259 724.687 397.428 723.901 399.237C723.102 399.138 723.135 399.188 722.553 398.645C721.659 396.551 722.215 391.803 722.575 389.519Z" fill="#260D4A"/>
<path d="M721.882 401.346C720.387 400.664 719.021 399.342 718.786 397.66L719.111 397.337C720.564 397.616 721.153 398.65 722.187 399.821L721.882 401.346Z" fill="#120A34"/>
<path d="M727.191 396.397C727.884 397.022 727.659 396.643 727.85 397.594C727.329 399.301 726.414 399.99 725.045 401.138C724.782 400.986 724.682 400.815 724.465 400.572C724.496 399.421 726.37 397.412 727.191 396.397Z" fill="#120A34"/>
<path d="M715.99 246.643C747.789 244.689 775.138 268.912 777.04 300.714C778.943 332.516 754.676 359.826 722.871 361.677C691.138 363.524 663.903 339.325 662.005 307.595C660.107 275.865 684.263 248.591 715.99 246.643Z" fill="#260D4A"/>
<path d="M715.848 248.34C746.614 246.302 773.21 269.581 775.266 300.346C777.322 331.111 754.057 357.72 723.294 359.794C692.506 361.868 665.87 338.581 663.813 307.792C661.756 277.002 685.058 250.38 715.848 248.34Z" fill="#F5C45C"/>
<path d="M766.129 315.42C760.518 338.904 738.352 354.578 714.341 352.041C690.329 349.504 671.929 329.545 671.348 305.407C670.768 281.268 688.189 260.448 712.051 256.76C735.913 253.073 758.806 267.664 765.539 290.852C766.191 293.098 766.678 295.388 766.997 297.705C767.809 303.613 767.515 309.62 766.129 315.42Z" fill="#260D4A"/>
<path d="M764.84 313.698C760.09 336.567 739.086 352.346 715.798 350.539C692.51 348.733 674.191 329.904 673.025 306.575C671.858 283.247 688.208 262.684 711.199 258.564C734.191 254.443 756.664 268.047 763.671 290.329C764.539 293.089 765.147 295.923 765.488 298.796C766.076 303.765 765.858 308.797 764.84 313.698Z" fill="#FDFBED"/>
<path d="M718.156 271.338L719.054 271.214C719.398 271.726 719.381 271.685 719.409 272.303L719.575 271.847C720.083 273.461 720.169 279.862 720.291 281.892C720.747 289.455 720.478 297.944 721.207 305.436C718.973 309.138 710.266 328.517 705.768 326.78C704.034 322.866 718.1 306.593 718.085 304.093C718.027 294.862 718.376 280.143 718.156 271.338Z" fill="#260D4A"/>
<path d="M712.316 316.899C712.335 318.442 709.49 322.571 708.364 323.771C708.016 322.461 711.414 318.181 712.316 316.899Z" fill="#A9A5BE"/>
<path d="M718.156 271.338C716.85 272.389 715.111 274.072 713.604 272.477C713.301 269.97 716.476 267.989 718.565 267.537L720.254 267.797C722.081 268.339 725.172 271.039 724.829 273.239C722.69 274.371 721.054 271.334 719.753 271.288L719.575 271.847L719.409 272.303C719.381 271.685 719.398 271.726 719.054 271.214L718.156 271.338Z" fill="#260D4A"/>
<path d="M751.552 304.972C754.296 304.978 760.724 304.798 763.107 305.13C763.623 305.798 763.415 305.795 763.319 306.923C759.585 306.8 755.892 306.941 752.137 306.826C751.444 306.188 751.672 306.234 751.552 304.972Z" fill="#260D4A"/>
<path d="M677.675 304.837C679.824 304.752 685.084 304.199 686.489 305.475L686.273 305.976C685.294 306.632 685.215 306.591 683.985 306.571C681.939 306.561 676.003 307.326 674.737 305.897L674.916 305.231C675.626 304.817 676.798 304.874 677.675 304.837Z" fill="#260D4A"/>
<path d="M718.006 335.936C718.419 336.032 719.247 336.159 719.319 336.616C719.702 339.057 720.103 345.413 719.296 347.586C718.659 347.547 718.699 347.569 718.183 347.199C717.389 345.251 717.77 338.211 718.006 335.936Z" fill="#260D4A"/>
<path d="M681.399 282.23C683.588 282.173 687.881 285.678 689.957 286.948C690.723 287.417 690.704 287.978 690.785 288.682C688.271 288.681 684.331 285.58 682.316 284.056C681.34 283.318 681.463 283.167 681.399 282.23Z" fill="#120A34"/>
<path d="M697.256 265.538C698.723 266.718 701.753 271.64 702.384 273.561C702.659 274.401 702.481 274.309 702.034 275.043C700.408 274.592 697.877 269.607 697.124 267.995C696.577 266.823 696.82 266.578 697.256 265.538Z" fill="#260D4A"/>
<path d="M748.058 320.753C749.351 321.005 755.662 324.618 756.755 325.695C757.076 326.011 756.917 326.288 756.873 326.876C754.703 326.924 750.153 324.112 748.42 322.616C747.724 322.014 747.962 321.547 748.058 320.753Z" fill="#260D4A"/>
<path d="M757.319 283.718C758.166 284.232 757.912 283.878 758.173 284.765C757.482 285.778 750.763 288.657 749.183 289.439C748.777 289.356 748.803 289.274 748.423 288.958L748.405 288.397C749.66 286.852 755.306 284.509 757.319 283.718Z" fill="#120A34"/>
<path d="M741.847 266.371C742.479 266.876 742.24 266.581 742.495 267.326C742.093 269.364 738.51 274.235 737.188 276.189C736.647 275.73 736.617 275.779 736.42 275.112C736.953 272.821 740.278 268.218 741.847 266.371Z" fill="#120A34"/>
<path d="M700.242 333.114L700.918 333.426L701.095 334.015C700.515 336.592 697.806 340.231 696.257 342.535C695.858 342.263 695.731 342.077 695.391 341.724C695.237 340.051 699.058 334.886 700.242 333.114Z" fill="#120A34"/>
<path d="M734.967 332.866C735.629 332.98 735.919 332.89 736.267 333.281C737.579 334.761 740.532 339.595 740.624 341.447C739.818 341.358 739.326 341.334 738.827 340.691C737.548 339.044 734.857 334.796 734.967 332.866Z" fill="#120A34"/>
<path d="M689.804 321.91C689.944 321.98 690.371 322.341 690.512 322.454L690.447 323.07C689.206 324.489 684.593 327.566 682.778 328.836C682.113 328.318 682.319 328.643 682.121 327.84C683.076 326.06 687.971 323.108 689.804 321.91Z" fill="#120A34"/>
<path d="M718.565 267.537C718.463 265.657 718.087 262.88 718.346 261.178L718.772 260.759L719.341 260.777C720.328 262.091 720.201 265.972 720.254 267.797L718.565 267.537Z" fill="#260D4A"/>
<path d="M627.541 331.393C650.269 329.472 670.248 346.344 672.16 369.072C674.072 391.8 657.192 411.773 634.463 413.676C611.747 415.578 591.788 398.71 589.877 375.994C587.966 353.279 604.827 333.313 627.541 331.393Z" fill="#120A34"/>
<path d="M626.129 333.053C647.933 330.306 667.824 345.785 670.518 367.595C673.211 389.406 657.682 409.259 635.865 411.898C614.124 414.528 594.356 399.066 591.672 377.332C588.989 355.597 604.401 335.791 626.129 333.053Z" fill="#E67079"/>
<path d="M664.817 378.121C661.864 395.791 645.669 408.11 627.852 406.24C610.036 404.369 596.752 388.955 597.532 371.057C598.314 353.16 612.889 338.961 630.801 338.65C648.712 338.337 663.773 352.019 665.177 369.879C665.393 372.631 665.273 375.399 664.817 378.121Z" fill="#120A34"/>
<path d="M663.407 377.213C660.874 394.619 644.894 406.811 627.436 404.654C609.978 402.498 597.445 386.783 599.225 369.283C601.005 351.783 616.445 338.915 633.979 340.316C651.514 341.718 664.713 356.877 663.689 374.438C663.635 375.366 663.541 376.292 663.407 377.213Z" fill="#FDFBED"/>
<path d="M626.793 351.318C627.853 351.345 628.736 351.443 628.845 352.677C629.108 357.697 629.977 362.624 630.465 367.611C630.706 370.065 632.187 373.102 631.441 374.409C627.972 380.488 627.093 388.133 623.464 394.164C622.25 396.18 620.066 395.78 618.565 399.117C618.156 399.4 618.069 399.392 617.598 399.576L617.241 399.338C617.041 395.597 628.418 378.03 629.006 373.69C629.878 367.266 626.603 358.265 626.793 351.318Z" fill="url(#paint3_linear_1_2)"/>
<path d="M622.33 390.743C622.511 392.17 621.546 393.994 620.694 395.11C620.477 394.002 621.777 391.843 622.33 390.743Z" fill="#A9A5BE"/>
<path d="M630.826 391.447C631.441 391.573 631.421 391.577 631.974 391.881C632.719 393.714 632.277 400.306 632.195 402.582C631.488 402.44 631.602 402.469 630.951 402.216C630.248 400.318 630.685 393.74 630.826 391.447Z" fill="#120A34"/>
<path d="M605.749 355.833C607.827 356.059 611.161 358.957 612.732 360.413C613.57 361.189 613.354 361.011 613.36 362.064L613.203 362.043C611.318 361.811 608.039 358.854 606.472 357.63C605.645 356.985 605.773 356.666 605.749 355.833Z" fill="#120A34"/>
<path d="M651.811 372.1C653.729 372.308 660.014 372.032 660.938 372.983L660.634 373.61C658.742 374.031 654.458 374.609 652.537 373.751C651.856 373.447 651.929 372.83 651.811 372.1Z" fill="#260D4A"/>
<path d="M617.354 345.433C618.794 346.11 622.02 352.6 621.744 354.171L620.774 353.988C619.319 352.735 616.826 347.43 617.354 345.433Z" fill="#120A34"/>
<path d="M645.506 345.052C646.021 345.37 645.966 345.377 646.402 345.819C646.528 347.762 643.903 351.772 642.843 353.559C642.494 353.4 642.257 353.213 641.934 352.999C641.77 351.514 644.635 346.734 645.506 345.052Z" fill="#120A34"/>
<path d="M601.709 372.068C603.759 372.06 609.549 371.714 610.759 372.692L610.756 373.585C608.574 373.662 603.29 374.306 601.838 373.261L601.709 372.068Z" fill="#260D4A"/>
<path d="M612.672 384.277C613.198 384.712 613.044 384.517 613.308 385.146C612.648 386.892 608.178 389.79 606.584 390.89C606.138 390.688 606.344 390.799 606.023 390.245C606.211 389.032 611.473 385.245 612.672 384.277Z" fill="#120A34"/>
<path d="M650.397 383.026C651.92 383.246 656.828 387.366 657.11 388.919C654.712 388.9 652.322 386.23 650.712 384.603C650.088 383.973 650.307 383.847 650.397 383.026Z" fill="#120A34"/>
<path d="M629.172 343.912C629.763 344.35 630.066 344.922 630.397 345.564L630.861 345.573L631.358 344.316L631.755 344.153C631.835 344.493 632.248 348.616 632.227 348.747C631.381 348.936 630.298 348.83 629.412 348.794C628.98 348.057 629.028 348.433 629.227 347.635C629.927 347.547 629.58 347.544 630.268 347.64C629.699 346.937 629.152 346.217 628.626 345.482C628.516 344.414 628.419 344.938 629.172 343.912Z" fill="#120A34"/>
<path d="M655.098 356.463L655.916 356.557L656.229 356.969C655.862 358.434 652.065 361.093 650.674 362.187C650.126 362.102 650.355 362.132 649.827 361.723C649.968 360.393 653.771 357.637 655.098 356.463Z" fill="#120A34"/>
<path d="M642.011 390.999C644.065 391.138 647.214 396.444 646.994 398.331C645.536 397.659 642.132 392.407 642.011 390.999Z" fill="#120A34"/>
<path d="M663.689 374.438C664.438 373.339 663.561 371.04 664.531 369.731L665.177 369.879C665.393 372.631 665.273 375.399 664.817 378.121C664.545 377.147 664.629 376.81 664.012 376.196L663.76 377.499L663.407 377.213C663.541 376.292 663.635 375.366 663.689 374.438Z" fill="#070310"/>
<path d="M410.601 504.569C411.474 505.194 413.547 509.288 414.222 510.511C421.033 522.845 428.509 535.71 440.555 543.607C453.53 552.112 465.374 551.686 479.842 548.109C486.599 546.417 493.222 544.233 499.66 541.574C508.633 537.89 517.703 533.492 527.156 531.11C531.135 530.107 535.396 529.997 539.492 529.87C538.251 526.495 533.988 515.952 536.301 513.406L536.942 513.427C538.387 514.165 539.495 518.876 540.139 520.661C541.696 525.044 543.703 529.254 546.127 533.224C551.576 542.114 558.936 549.531 569.923 549.914C580.572 550.285 584.872 537.538 580.722 529.169C579.93 527.573 578.325 524.287 578.699 522.647C579.342 521.797 578.941 522.014 579.846 521.82C581.084 522.234 581.527 522.92 582.27 523.958C592.119 537.741 583.717 559.002 564.64 554.203C552.958 551.264 547.492 544.184 541.409 534.448C534.737 534.471 529.25 535.013 522.922 537.264C514.058 540.416 505.542 544.355 496.748 547.686C487.503 551.188 478.162 553.634 468.328 554.671C472.519 568.938 481.888 583.81 491.273 595.236C496.559 601.673 502.544 607.728 508.161 613.89C515.206 621.522 521.926 629.447 528.305 637.643C555.954 672.879 575.106 712.569 588.585 755.117C591.108 763.081 594.636 773.633 596.35 781.643L588.417 781.812C586.553 774.066 583.864 765.26 581.479 757.665C568.357 716.007 549.108 675.593 521.925 641.223C513.099 630.063 503.626 618.909 493.818 608.612C478.734 592.776 467.996 576.17 461.464 555.102C452.601 554.554 446.654 552.899 438.912 548.367C424.222 539.765 414.431 520.866 410.601 504.569Z" fill="#260D4A"/>
<path d="M493.942 487.497C506.422 487.588 508.88 497.213 500.794 505.412C495.19 511.093 486.728 514.993 478.698 515.177C468.334 514.833 462.448 508.212 470.187 498.971C475.892 492.158 485.176 488.311 493.942 487.497Z" fill="#260D4A"/>
<path d="M492.651 489.477C501.861 488.163 507.061 494.762 500.823 502.701C495.758 509.149 487.677 512.346 479.706 513.42C471.261 513.706 464.178 509.121 471.059 500.564C476.168 494.212 484.658 490.468 492.651 489.477Z" fill="#F6C0C0"/>
<path d="M654.108 490.158C656.235 499.368 660.306 509.265 668.701 514.544C669.211 514.863 669.73 515.17 670.256 515.464C661.704 522.748 656.634 529.857 654.343 541.166C654.01 540.556 653.765 540.038 653.471 539.413L652.825 539.148C652.574 539.264 652.016 539.499 651.81 539.64C651.197 536.345 650.469 533.734 649.15 530.598C646.892 525.224 643.037 519.532 637.431 517.274C636.645 516.957 636.611 517.025 635.872 516.511C636.11 515.792 636.346 515.875 637.209 515.363C644.02 510.627 648.256 505.316 651.448 497.571C652.439 495.165 653.169 492.444 654.108 490.158Z" fill="#FDFBED"/>
<path d="M654.108 490.158C656.235 499.368 660.306 509.265 668.701 514.544C669.211 514.863 669.73 515.17 670.256 515.464C661.704 522.748 656.634 529.857 654.343 541.166C654.01 540.556 653.765 540.038 653.471 539.413C655.361 529.435 660.525 522.526 667.716 515.754C660.087 508.772 656.748 504.771 653.931 494.687C651.21 503.312 645.666 511.175 638.066 516.156L637.209 515.363C644.02 510.627 648.256 505.316 651.448 497.571C652.439 495.165 653.169 492.444 654.108 490.158Z" fill="#120A34"/>
<path d="M637.209 515.363L638.066 516.157C646.05 520.534 652.551 529.947 652.825 539.148C652.574 539.264 652.016 539.499 651.81 539.64C651.197 536.345 650.469 533.734 649.15 530.598C646.892 525.224 643.037 519.532 637.431 517.274C636.645 516.958 636.611 517.025 635.872 516.511C636.11 515.792 636.346 515.876 637.209 515.363Z" fill="#260D4A"/>
<path d="M410.074 414.137C411.645 414.893 429.771 440.296 431.776 443.944L430.841 443.568C427.542 442.23 426.812 442.908 425.502 446.066C424.835 448.945 425.01 449.706 425.555 452.516C415.903 448.153 408.121 423.377 410.074 414.137Z" fill="#260D4A"/>
<path d="M412.601 419.934C413.442 420.696 416.035 424.247 416.95 425.453C420.85 430.52 424.611 435.694 428.227 440.968C426.438 441.987 425.725 442.416 424.653 444.161C424.002 445.55 423.758 446.672 423.377 448.141C416.663 440.004 414.34 430.061 412.601 419.934Z" fill="#F6C0C0"/>
<path d="M626.752 246.853C627.591 248.117 628.558 254.269 629.495 256.299C631.47 260.574 633.977 262.098 638.064 263.822C631.948 267.307 629.776 271.021 628.256 277.855C627.911 279.407 628.043 281.08 627.428 282.507C626.412 281.43 626.337 278.908 625.878 277.176C624.026 270.176 621.652 267.973 615.717 264.334C623.128 260.48 622.688 258.314 625.281 250.608C625.711 249.331 625.996 247.969 626.752 246.853Z" fill="#120A34"/>
<path d="M626.305 250.843C626.871 251.461 628.017 255.454 628.457 256.554C630.064 260.575 631.827 262.306 635.584 264.061C630.363 267.167 629.311 270.877 627.394 276.231L627.299 276.26C626.568 275.937 625.341 271.161 623.992 269.45C621.653 266.484 621.486 266.522 618.32 264.587C623.693 260.894 624.811 257.163 626.305 250.843Z" fill="#FDFBED"/>
<path d="M691.643 555.427L692.226 555.772C693.965 562.777 696.509 564.793 702.215 568.297C695.982 572.683 694.017 577.737 692.281 584.795C690.47 583.934 690.432 572.95 681.636 568.166C688.036 565.822 689.86 561.416 691.643 555.427Z" fill="#120A34"/>
<path d="M691.784 558.658C692.125 558.996 692.024 558.846 692.242 559.253C695.089 564.578 695.373 565.158 700.282 568.308C695.79 572.838 694.132 574.46 692.37 580.647C691.692 580.664 690.437 576.747 690.062 575.816C688.683 572.398 686.717 570.644 683.974 568.371C688.26 565.163 689.736 563.615 691.784 558.658Z" fill="#FDFBED"/>
<path d="M579.567 441.833C588.705 442.585 594.368 459.237 584.437 460.08C576.217 458.229 568.915 444.134 579.567 441.833Z" fill="#260D4A"/>
<path d="M578.769 445.182C583.956 445.698 589.477 453.415 585.35 457.245C579.534 457.307 574.343 448.273 578.769 445.182Z" fill="#FDFBED"/>
<path d="M726.336 519.756L726.827 520.194C726.895 520.724 726.981 521.252 727.085 521.777C728.093 526.693 732.506 530.464 736.508 533.036C731.466 537.509 728.669 541.8 727.395 548.444C725.973 548.533 725.855 544.428 725.184 542.638C723.451 538.01 721.624 535.528 717.494 532.905C723.515 529.361 725.118 526.326 726.336 519.756Z" fill="#120A34"/>
<path d="M726.522 523.849C728.435 527.833 730.91 530.654 734.58 533.066C730.34 537.78 729.809 538.448 727.269 544.181L727.007 544.18C726.617 543.767 726.617 543.867 726.472 543.374C724.985 538.339 723.253 536.301 719.491 532.762C723.21 530.403 725.038 527.91 726.522 523.849Z" fill="#FDFBED"/>
<path d="M489.264 450.618C495.899 450.31 502.078 454.998 504.628 460.965C504.988 461.806 505.104 462.312 504.731 463.122L504.086 463.223C503.313 462.177 502.464 461.116 501.692 460.073C497.803 454.8 489.119 451.081 484.824 458.035C481.711 463.075 482.028 468.132 483.342 473.699C483.432 474.011 483.389 474.281 483.384 474.631C483.095 474.936 482.566 475.304 482.195 475.005C478.59 472.097 477 472.17 472.422 472.868L472.182 472.596C473.423 470.263 477.257 470.878 479.361 471.233C478.913 468.812 478.895 467.253 478.864 464.793C476.148 464.267 471.86 462.766 471.422 459.517C472.828 458.705 474.22 461.735 475.792 462.4C476.827 462.837 477.9 462.975 478.991 463.168C480.46 456.473 482.646 452.983 489.264 450.618Z" fill="#260D4A"/>
<path d="M652.825 539.148L653.471 539.413C653.765 540.039 654.01 540.556 654.343 541.166C654.145 542.391 654.114 543.386 653.437 544.397L653.047 544.412C652.257 542.993 652.112 541.287 651.81 539.64C652.016 539.499 652.574 539.264 652.825 539.148Z" fill="#260D4A"/>
</g>
</g>
</g>
<defs>
<filter id="filter0_dd_1_2" x="91.0001" y="98" width="842" height="846" filterUnits="userSpaceOnUse" color-interpolation-filters="sRGB">
<feFlood flood-opacity="0" result="BackgroundImageFix"/>
<feColorMatrix in="SourceAlpha" type="matrix" values="0 0 0 0 0 0 0 0 0 0 0 0 0 0 0 0 0 0 127 0" result="hardAlpha"/>
<feMorphology radius="1" operator="dilate" in="SourceAlpha" result="effect1_dropShadow_1_2"/>
<feOffset dy="7"/>
<feGaussianBlur stdDeviation="4"/>
<feComposite in2="hardAlpha" operator="out"/>
<feColorMatrix type="matrix" values="0 0 0 0 0 0 0 0 0 0 0 0 0 0 0 0 0 0 0.15 0"/>
<feBlend mode="normal" in2="BackgroundImageFix" result="effect1_dropShadow_1_2"/>
<feColorMatrix in="SourceAlpha" type="matrix" values="0 0 0 0 0 0 0 0 0 0 0 0 0 0 0 0 0 0 127 0" result="hardAlpha"/>
<feOffset dy="12"/>
<feGaussianBlur stdDeviation="4"/>
<feComposite in2="hardAlpha" operator="out"/>
<feColorMatrix type="matrix" values="0 0 0 0 0 0 0 0 0 0 0 0 0 0 0 0 0 0 0.15 0"/>
<feBlend mode="normal" in2="effect1_dropShadow_1_2" result="effect2_dropShadow_1_2"/>
<feBlend mode="normal" in="SourceGraphic" in2="effect2_dropShadow_1_2" result="shape"/>
</filter>
<linearGradient id="paint0_linear_1_2" x1="442.864" y1="374.964" x2="441.647" y2="377.26" gradientUnits="userSpaceOnUse">
<stop stop-color="#000017"/>
<stop offset="1" stop-color="#1A0B3B"/>
</linearGradient>
<linearGradient id="paint1_linear_1_2" x1="326.505" y1="593.101" x2="310.885" y2="519.415" gradientUnits="userSpaceOnUse">
<stop stop-color="#79B799"/>
<stop offset="1" stop-color="#78A79D"/>
</linearGradient>
<linearGradient id="paint2_linear_1_2" x1="487.715" y1="407.042" x2="469.719" y2="407.419" gradientUnits="userSpaceOnUse">
<stop stop-color="#00000C"/>
<stop offset="1" stop-color="#0B092F"/>
</linearGradient>
<linearGradient id="paint3_linear_1_2" x1="620.939" y1="374.872" x2="630.065" y2="377.433" gradientUnits="userSpaceOnUse">
<stop stop-color="#08052B"/>
<stop offset="1" stop-color="#190846"/>
</linearGradient>
<clipPath id="clip0_1_2">
<rect width="1024" height="1024" fill="white"/>
</clipPath>
<clipPath id="clip1_1_2">
<rect width="829" height="829" fill="white" transform="translate(99 100)"/>
</clipPath>
</defs>
</svg>
