<svg width="680" height="680" viewBox="0 0 680 680" fill="none" xmlns="http://www.w3.org/2000/svg">
<path d="M407.508 68.5738C409.966 66.7372 414.789 62.6981 417.546 62.1356C418.925 62.4819 418.338 62.1524 419.347 63.1984C419.49 63.6503 419.722 64.4081 419.487 64.8523C413.324 76.5016 405.536 97.4186 394.823 104.765C393.901 111.109 388.852 118.762 382.662 120.958C379.685 129.885 377.724 136.324 369.273 141.415C367.533 150.775 363.212 160.321 353.639 163.759C352.961 175.871 349.871 184.318 338.336 189.709C335.795 196.76 334.162 199.809 329.981 206.18C346.942 211.451 356.104 219.832 365.456 234.567C373.739 236.509 382.304 236.941 390.74 235.84C404.865 234.031 416.608 227.737 431.472 231.898C455.459 238.61 467.082 263.955 461.205 287.276C459.389 294.416 457.608 298.427 452.444 303.771C452.921 308.827 451.475 315.738 448.226 319.739C446.142 322.325 443.052 323.898 439.734 324.06C437.673 324.168 435.647 323.267 433.738 323.062C432.632 322.943 429.95 323.908 428.646 323.844C421.944 323.516 416.413 319.112 411.587 315.173C412.23 325.568 412.675 335.716 416.398 345.618C417.581 348.762 418.818 351.773 420.173 354.874C421.641 358.236 424.604 364.434 421.61 367.67C419.356 370.107 414.548 372.222 411.257 372.328C404.557 372.648 397.718 368.788 392.924 364.446C382.126 354.667 377.877 337.047 377.298 323.046C376.711 308.808 380.541 293.623 386.726 280.841C389.041 276.058 392.001 271.546 393.724 266.459C393.096 263.971 391.439 254.048 394.159 252.752C394.489 252.875 395.313 253.029 395.33 253.436C396.191 274.524 405.434 294.909 425.293 304.325C437.621 310.17 448.512 303.41 453.337 291.831C457.818 281.256 457.792 269.309 453.264 258.753C449.535 249.927 442.094 242.612 433.219 239.068C420.44 233.962 407.579 239.026 394.896 241.4C388.65 242.569 379.891 242.867 373.589 242.083C359.671 240.294 346.2 235.969 333.842 229.323C329.946 227.251 324.203 223.522 320.628 221.874C317.643 230.542 310.924 243.774 303.352 249.293C302.887 236.15 301.78 225.839 297.463 213.309C296.394 225.704 292.46 240.677 286.92 251.659C273.779 277.711 251.555 304.741 222.718 313.154C226.812 305.782 231.847 298.353 235.654 290.94C241.501 279.556 248.957 263.481 251.094 251.09C240.299 224.078 223.428 210.132 202.803 191.054C201.551 215.485 201.593 238.665 212.808 261.469C214.848 265.618 218.269 270.211 220.989 274.001C216.542 288.508 206.441 306.16 197.983 318.707C197.776 364.521 209.349 412.763 242.418 446.348C257.819 461.99 275.57 468.001 292.448 482.125C319.382 504.665 334.023 526.251 347.493 558.068C354.064 573.343 359.282 589.165 363.089 605.352C364.826 612.528 371.808 644.235 369.019 649.841L368.43 650.078C366.467 649.211 364.707 645.118 363.448 643.347C341.719 612.785 308.176 594.569 274.305 580.451C266.959 577.388 258.464 574.298 251.384 570.822C270.361 592.425 294.343 623.46 300.019 653.389C300.063 653.62 299.822 654.096 299.717 654.329L299.138 654.549C295.837 652.952 293.079 649.729 290.041 648.02C269.339 636.369 245.524 630.021 224.358 619.406C229.176 634.178 237.568 648.593 246.043 661.571C247.294 663.488 251.262 668.764 251.337 670.676C250.765 671.25 251.091 671.075 250.392 671.259C247.563 671.067 221.058 670.879 220 671.403C217.775 672.193 213.116 671.704 210.629 671.802C179.16 673.047 147.699 664.27 125.012 641.482C119.456 635.9 115.011 630.005 110.433 623.442C114.442 637.353 118.434 654.3 123.388 667.543L114.465 667.595C110.188 653.494 105.694 639.799 102.39 625.389C99.5037 614.407 98.4983 602.23 95.3099 591.424C91.6542 579.037 90.0016 568.543 88.7338 555.742C81.8135 587.907 86.4425 621.482 101.807 650.575C67.6399 642.559 43.8424 608.313 37.5315 575.369C32.5763 549.502 38.2744 522.626 49.6839 499.186C53.8048 490.721 59.6099 481.866 64.8524 474.106C64.0758 473.75 62.2546 473.454 61.3003 473.198C57.499 472.18 55.794 471.262 52.5783 469.126C47.23 480.47 45.5725 487.106 42.5075 498.882C41.428 494.382 40.97 486.252 40.7112 481.531C39.0339 453.851 43.629 426.149 54.154 400.493C51.6149 397.16 50.4696 376.339 50.4091 371.469C50.2801 361.062 49.9117 346.982 52.2411 336.829C32.8155 330.349 10.6941 324.203 0 304.4C15.8581 307.68 40.7924 300.425 55.244 293.138C60.4509 290.512 65.1981 287.625 70.0908 284.457C70.0978 284.308 70.1076 284.159 70.1118 284.011C70.3244 276.675 82.7063 250.003 86.7307 241.945C73.4008 236.599 63.4538 228.407 56.7735 215.439C71.9889 223.642 85.1026 224.04 101.96 220.02C102.987 216.582 111.035 205.322 113.388 201.708C122.003 188.481 133.129 175.797 144.126 164.505C173.83 133.471 209.369 108.608 248.706 91.3456C291.801 72.4821 338.72 63.9911 385.693 66.5553C389.775 66.7673 404.302 67.3053 407.508 68.5738Z" fill="#260D4A"/>
<path d="M101.96 220.02C102.987 216.582 111.035 205.322 113.388 201.708C122.003 188.481 133.129 175.797 144.126 164.505C173.83 133.471 209.369 108.608 248.706 91.3456C291.801 72.4821 338.72 63.9911 385.693 66.5553C389.775 66.7673 404.302 67.3053 407.508 68.5738C401.039 73.8304 396.498 77.202 392.365 84.5834C384.523 88.1362 381.592 92.1208 378.133 99.9758C371.632 101.221 362.972 110.753 361.183 116.943C350.861 121.359 345.165 127.751 342.674 138.742C333.815 142.322 330.941 148.715 327.749 157.105C322.111 158.08 317.359 162.606 314.2 167.155C312.987 168.924 311.891 170.769 310.918 172.68C307.814 162.248 304.06 150.98 300.188 140.767C299.421 138.742 296.868 136.181 294.329 137.207C288.099 140.388 285.336 152.331 282.59 158.34C280.859 162.126 279.125 167.335 278.123 170.886L273.208 170.368C261.727 158.578 247.381 151.865 230.782 151.461C175.97 150.129 150.739 208.005 101.96 220.02Z" fill="#FCEFB7"/>
<path d="M220 671.403C218.258 669.09 213.146 668.307 209.991 667.269C179.57 657.369 154.3 635.837 139.696 607.373C120.723 569.782 122.606 522.766 135.48 483.571C135.165 486.742 135.297 489.827 135.305 492.946C135.426 543.797 164.314 586.404 208.309 610.361C212.368 612.571 217.596 615.467 221.51 618.001C227.174 634.979 239.928 656.853 250.392 671.259C247.563 671.067 221.058 670.879 220 671.403Z" fill="#945BA6"/>
<path d="M52.2411 336.829C68.7929 341.076 77.6772 342.528 94.9587 342.798C77.2448 357.547 63.1999 379.511 54.154 400.493C51.6149 397.16 50.4696 376.339 50.4091 371.469C50.2801 361.062 49.9117 346.982 52.2411 336.829Z" fill="#FCEFB7"/>
<path d="M52.5784 469.126C65.9964 443.072 84.8214 423.698 111.217 410.794C107.002 415.86 102.896 422.113 98.9719 427.51L74.7127 460.408C71.5202 464.73 68.0702 470.019 64.8524 474.106C64.0758 473.75 62.2546 473.454 61.3003 473.198C57.499 472.18 55.794 471.262 52.5784 469.126Z" fill="#FCEFB7"/>
<path d="M86.7307 241.945C98.5361 245.947 103.753 246.227 115.934 245.566C99.8136 261.684 89.076 271.898 70.0908 284.457C70.0978 284.308 70.1076 284.159 70.1118 284.011C70.3245 276.675 82.7063 250.003 86.7307 241.945Z" fill="#FCEFB7"/>
<path d="M194.314 324.028C194.358 370.008 206.113 414.357 238.489 448.455C249.404 459.95 260.892 465.501 273.839 473.814C297.199 488.975 316.552 509.553 330.252 533.798C333.176 538.867 342.161 554.701 343.503 560.201C344.043 561.994 344.492 561.979 344.328 563.935C344.879 564.744 346.295 566.389 346.583 567.101C352.058 580.575 357.143 596.093 359.78 610.352L359.546 610.735L359.371 610.768C345.94 590.116 327.697 576.598 306.075 565.34C300.644 562.512 294.16 559.331 288.448 557.154L287.684 557.129L287.422 557.401L286.959 557.252L286.602 557.405L287.456 557.962L287.127 558.303C292.818 561.368 300.027 564.215 306.134 567.434C328.113 579.015 343.706 591.159 358.021 611.541C363.559 620.372 363.284 628.659 365.388 638.933C344.381 610.089 311.515 590.999 279.161 577.778C235.814 560.066 200.358 548.831 176.384 504.878C163.299 480.888 159.198 454.124 159.685 427.012C159.798 420.748 160.261 408.781 161.978 402.881C162.814 400.404 162.048 398.814 162.868 397.562C165.692 384.687 168.675 373.616 173.954 361.406C175.135 358.675 176.5 354.755 177.954 352.263L178.268 352.334L178.626 354.173C178.622 351.717 178.502 351.068 180.015 349.212C181.343 345.262 191.658 328.219 194.314 324.028Z" fill="#F5C45C"/>
<path d="M194.314 324.028C194.358 370.008 206.113 414.357 238.489 448.455C249.404 459.95 260.892 465.501 273.839 473.814C297.199 488.975 316.552 509.553 330.252 533.798C333.176 538.867 342.161 554.701 343.503 560.201C344.043 561.994 344.492 561.979 344.328 563.935C327.742 542.858 307.3 526.036 283.807 513.194C265.974 503.447 252.99 497.539 237.296 484.387C228.126 476.841 220.018 468.09 213.193 458.371C194.136 431.385 181.904 391.553 178.98 358.811C178.732 357.047 178.674 355.959 178.626 354.173C178.622 351.717 178.502 351.068 180.015 349.212C181.343 345.262 191.658 328.219 194.314 324.028Z" fill="#79AA9F"/>
<path d="M178.98 358.811L180.496 356.626C185.881 404.319 201.242 453.323 240.079 484.485C255.033 496.484 267.61 502.433 284.308 511.563C307.85 524.435 326.594 539.404 343.503 560.201C344.043 561.994 344.492 561.979 344.328 563.935C327.742 542.858 307.3 526.036 283.807 513.194C265.974 503.447 252.99 497.539 237.296 484.387C228.126 476.841 220.018 468.09 213.193 458.371C194.136 431.385 181.904 391.553 178.98 358.811Z" fill="#260D4A"/>
<path d="M180.015 349.212C180.154 351.685 180.314 354.157 180.496 356.626L178.98 358.811C178.732 357.047 178.674 355.959 178.626 354.173C178.622 351.717 178.502 351.068 180.015 349.212Z" fill="#120A34"/>
<path d="M161.978 402.881C163.575 408.588 164.542 418.528 166.285 423.525C167.013 428.671 172.407 448.048 174.649 452.62C188.877 494.421 216.873 526.454 256.711 545.173C258.581 546.052 263.136 548.346 264.945 548.875C265.822 548.544 266.614 548.464 267.536 548.317C273.913 551.028 282.319 554.28 288.448 557.154L287.684 557.129L287.422 557.401L286.959 557.252L286.602 557.405L287.456 557.963L287.127 558.303C292.818 561.368 300.027 564.215 306.134 567.434C328.113 579.015 343.706 591.159 358.021 611.541C363.559 620.372 363.284 628.659 365.388 638.933C344.381 610.089 311.515 590.999 279.161 577.778C235.814 560.066 200.358 548.831 176.384 504.878C163.299 480.888 159.198 454.124 159.685 427.013C159.798 420.748 160.261 408.781 161.978 402.881Z" fill="#E67079"/>
<path d="M267.536 548.317C273.913 551.027 282.319 554.28 288.448 557.154L287.684 557.129L287.422 557.401L286.959 557.252L286.602 557.405L287.456 557.963L287.127 558.303C284.992 557.969 267.547 550.238 264.945 548.875C265.822 548.544 266.614 548.464 267.536 548.317Z" fill="#260D4A"/>
<path d="M166.285 423.525C166.683 423.837 166.956 424.065 167.334 424.392L167.792 422.407C169.362 429.403 170.953 436.151 173.21 442.961C173.647 444.28 175.626 449.838 175.68 450.893C179.359 459.418 181.685 466.569 186.086 474.95C205.708 512.311 230.078 531.267 267.536 548.317C266.614 548.464 265.822 548.544 264.945 548.875C263.136 548.346 258.581 546.052 256.711 545.173C216.873 526.454 188.877 494.421 174.649 452.62C172.407 448.048 167.013 428.671 166.285 423.525Z" fill="#260D4A"/>
<path d="M161.978 402.881C162.814 400.404 162.048 398.814 162.868 397.562C164.363 405.865 166.331 414.128 167.792 422.407L167.334 424.392C166.956 424.065 166.683 423.838 166.285 423.525C164.542 418.529 163.575 408.588 161.978 402.881Z" fill="#120A34"/>
<path d="M12.0452 310.881L10.8799 309.956C11.4143 309.613 16.8068 309.504 17.8182 309.404C58.8256 305.309 93.4915 275.739 120.735 247.313C144.306 222.72 166.742 198.239 198.858 185.622C196.496 205.989 195.991 220.372 200.003 240.828L200.313 242.423C201.462 245.807 202.172 249.627 203.28 253.019C181.228 275.465 168.189 295.511 156.524 324.986C142.317 334.035 120.395 337.377 103.555 338.006C74.6763 339.085 43.4941 332.254 18.6426 317.178C17.389 316.417 13.4044 313.678 12.8655 312.418L12.0452 310.881Z" fill="#F5C45C"/>
<path d="M200.313 242.423C201.462 245.807 202.172 249.627 203.28 253.019C181.228 275.465 168.189 295.51 156.524 324.986C142.317 334.035 120.395 337.377 103.555 338.006C74.6763 339.085 43.4941 332.254 18.6426 317.177C17.389 316.417 13.4045 313.678 12.8655 312.418C14.9274 313.053 17.3974 313.886 19.4499 314.417C34.6325 316.947 50.1498 316.682 65.2372 313.633C111.363 306.281 156.831 269.853 195.202 245.328L200.313 242.423Z" fill="#E67079"/>
<path d="M61.5976 312.78C91.897 306.623 114.627 295.862 140.993 279.371C158.948 268.14 175.816 255.363 193.876 244.193L195.202 245.328C156.831 269.853 111.363 306.281 65.2372 313.633C50.1498 316.682 34.6325 316.947 19.4499 314.417L20.3277 312.913C32.5648 314.715 44.221 315.045 56.4873 313.436C58.0105 313.236 60.1199 312.855 61.5976 312.78Z" fill="#260D4A"/>
<path d="M200.003 240.828L200.313 242.423L195.202 245.328L193.876 244.193C195.872 242.927 197.906 241.915 200.003 240.828Z" fill="#120A34"/>
<path d="M12.0452 310.881C14.8668 311.858 17.4188 312.32 20.3277 312.913L19.45 314.417C17.3974 313.886 14.9274 313.053 12.8655 312.418L12.0452 310.881Z" fill="#070310"/>
<path d="M145.272 414.219C145.945 415.172 146.204 421.151 145.922 422.332C143.693 431.648 140.871 440.836 139.029 450.248C138.123 454.83 137.393 459.444 136.841 464.08C136.366 468.272 136.012 473.608 135.047 477.631C133.83 482.325 132.338 486.991 131.095 491.676C121.39 528.255 119.932 568.017 135.762 603.176C147.56 629.38 168.611 650.932 194.794 663.05C200.046 665.48 204.969 667.331 210.385 669.391C200.598 668.653 193.518 667.648 183.754 666.043C122.396 654.694 92.8695 602.674 93.5818 543.87C94.1961 493.129 116.183 454.18 145.272 414.219Z" fill="#79AA9F"/>
<path d="M146.488 426.025C147.03 427.572 148.033 437.623 148.352 439.934C149.549 448.632 150.852 455.955 153.221 464.423C156.55 475.907 161.081 487.008 166.736 497.543C168.775 501.417 171.788 505.678 173.556 509.536C175.086 513.47 175.221 518.098 176.057 522.197C184.905 565.578 219.007 596.914 256.859 616.685C267.2 622.086 277.875 626.189 288.492 630.91C291.026 636.15 292.95 641.038 294.92 646.493C292.927 645.14 290.726 643.87 288.65 642.625C279.06 637.39 266.219 632.713 255.993 628.47C244.743 623.804 233.046 619.798 221.909 614.755C195.96 603.004 174.124 586.641 158.22 562.848C136.876 530.915 133.746 494.466 139.689 457.354C141.44 446.411 144.265 436.703 146.488 426.025Z" fill="#E67079"/>
<path d="M144.362 395.4C144.875 396.083 145.163 407.664 145.445 409.617C143.612 412.758 140.381 416.728 138.099 419.699C133.794 425.212 129.597 430.81 125.512 436.488C122.96 440.11 120.298 443.937 117.927 447.694C93.7392 486.028 64.3025 524.824 63.2132 572.117C62.7773 591.043 66.3337 609.389 75.7252 625.946C78.614 631.038 82.0696 635.377 85.6204 639.957C81.2671 636.639 77.0475 633.476 72.9216 629.866C66.5757 624.086 61.0072 617.508 56.3565 610.293C41.4411 587.276 37.2072 558.824 43.0222 532.244C49.0519 504.682 62.715 485.044 78.8666 462.796L101.608 431.676C106.895 424.401 113.565 414.262 119.361 407.505C120.559 406.108 132.2 401.692 134.866 400.477C138.557 398.793 140.56 397.845 144.362 395.4Z" fill="#E67079"/>
<path d="M69.4219 225.107C80.0455 227.635 89.4097 227.499 100.139 225.522C150.875 216.169 176.055 156.23 230.014 156.594C245.507 156.698 260.431 161.069 271.688 172.023C267.769 172.1 266.757 171.708 263.524 173.741L263.51 175.631C259.424 172.54 245.827 165.296 241.073 166.487C243.304 167.794 245.095 168.956 246.919 170.843C248.659 172.437 250.793 174.64 252.111 176.597L250.66 177.664C251.749 179.248 252.686 180.401 253.307 182.221L253.188 182.656L252.323 184.217C254.75 185.231 254.9 185.169 255.401 187.767C257.177 196.692 257.507 204.926 257.266 214.007C252.401 214.319 242.42 216.127 238.111 218.282C237.382 217.085 234.538 213.968 233.496 212.795C224.004 202.201 213.313 192.745 201.64 184.615L201.607 183.712C199.55 183.572 197.42 185.419 196.446 184.989L196.429 184.739C175.515 191.675 154.819 211.116 138.867 225.835C135.477 228.462 129.262 237.352 125.271 238.497C105.835 244.074 82.9645 239.326 69.4219 225.107Z" fill="#E67079"/>
<path d="M239.573 179.091C244.215 179.475 248.874 180.953 253.188 182.656L252.323 184.217C254.75 185.231 254.9 185.169 255.401 187.767C257.177 196.692 257.507 204.926 257.266 214.007C252.401 214.319 242.42 216.127 238.111 218.282C237.382 217.085 234.538 213.968 233.496 212.795C224.004 202.201 213.313 192.745 201.64 184.615C205.803 182.546 211.196 181.967 215.63 180.702C224.518 179.824 229.441 179.541 238.403 180.405C239.577 180.192 239.208 179.928 240.113 179.734L239.587 179.472L239.573 179.091Z" fill="#F5C45C"/>
<path d="M239.573 179.091C244.215 179.475 248.874 180.953 253.188 182.656L252.323 184.217C247.178 182.042 243.813 181.337 238.403 180.405C239.577 180.192 239.208 179.928 240.113 179.734L239.587 179.472L239.573 179.091Z" fill="#120A34"/>
<path d="M239.246 163.713C247.026 165.042 257.415 168.598 263.524 173.741L263.51 175.631C259.424 172.54 245.827 165.296 241.073 166.487L240.848 166.409C240.308 165.003 240.202 164.913 239.246 163.713Z" fill="url(#paint0_linear_10_284)"/>
<path d="M216.323 179.067C221.136 178.488 235.481 177.401 239.573 179.091L239.587 179.472L240.113 179.734C239.208 179.929 239.577 180.192 238.403 180.405C229.441 179.541 224.518 179.824 215.63 180.702L215.141 180.418L216.132 179.951L216.323 179.067Z" fill="#120A34"/>
<path d="M196.429 184.739C201.088 182.238 210.985 180.071 216.323 179.067L216.132 179.951L215.141 180.418L215.63 180.702C211.196 181.967 205.803 182.546 201.64 184.615L201.607 183.712C199.55 183.572 197.42 185.419 196.446 184.989L196.429 184.739Z" fill="#260D4A"/>
<path d="M246.919 170.843C248.659 172.437 250.793 174.64 252.111 176.597L250.66 177.664C249.09 175.589 247.658 174.203 245.83 172.356C246.277 171.428 246.198 171.647 246.919 170.843Z" fill="#120A34"/>
<path d="M240.848 166.409L241.073 166.487C243.304 167.794 245.095 168.956 246.919 170.843C246.198 171.647 246.277 171.428 245.83 172.356C244.126 170.671 242.163 169.221 240.271 167.743L240.848 166.409Z" fill="#260D4A"/>
<path d="M240.271 167.743C238.801 166.906 236.948 166.003 235.97 164.696L236.098 164.054C237.088 163.394 238.004 163.633 239.246 163.713C240.202 164.913 240.308 165.003 240.848 166.409L240.271 167.743Z" fill="#260D4A"/>
<path d="M241.073 166.487C245.827 165.296 259.424 172.54 263.51 175.631C263.799 175.908 264.544 176.661 264.827 176.849C265.437 176.517 265.418 176.649 266.242 176.643C274.58 177.193 276.215 178.689 282.514 183.978C287.288 188.529 294.531 199.347 295.096 205.761C295.187 238.652 280.725 265.315 258.187 288.64C251.73 295.322 240.345 304.701 231.987 308.08L234.165 305.671C233.224 305.578 233.08 305.682 232.383 305.102L232.648 304.319C232.993 302.947 234.346 300.654 235.129 299.418C246.206 281.932 251.832 262 255.875 241.819C255.017 238.063 256.678 233.398 256.834 229.387C257.127 221.903 260.163 209.862 258.085 202.593C258.115 208.32 256.343 236.331 253.782 240.515C253.59 241.019 253.395 241.523 253.195 242.024C252.589 241.81 251.501 238.514 251.068 237.509C248.217 230.879 243.718 225.565 239.679 219.688L239.844 219.266C238.91 219.141 238.856 218.926 238.111 218.282C242.42 216.127 252.401 214.319 257.266 214.007C257.507 204.926 257.177 196.692 255.401 187.767C254.9 185.169 254.75 185.231 252.323 184.217L253.188 182.656L253.307 182.221C252.686 180.401 251.749 179.248 250.66 177.664L252.111 176.597C250.793 174.64 248.659 172.437 246.919 170.843C245.095 168.956 243.304 167.794 241.073 166.487Z" fill="#945BA6"/>
<path d="M241.073 166.487C245.827 165.296 259.424 172.54 263.51 175.631C263.799 175.908 264.544 176.661 264.827 176.849C274.694 188.345 276.243 202.203 275.359 216.954C273.624 245.895 259.422 273.29 240.912 295.078C238.947 297.392 234.755 302.306 232.648 304.319C232.993 302.947 234.346 300.654 235.129 299.418C246.206 281.932 251.832 262 255.875 241.819C255.017 238.063 256.678 233.398 256.834 229.387C257.127 221.903 260.163 209.862 258.085 202.593C258.115 208.32 256.343 236.331 253.782 240.515C253.59 241.019 253.395 241.523 253.195 242.024C252.589 241.81 251.501 238.514 251.068 237.509C248.217 230.879 243.718 225.565 239.679 219.688L239.844 219.266C238.91 219.141 238.856 218.926 238.111 218.282C242.42 216.127 252.401 214.319 257.266 214.007C257.507 204.926 257.177 196.692 255.401 187.767C254.9 185.169 254.75 185.231 252.323 184.217L253.188 182.656L253.307 182.221C252.686 180.401 251.749 179.248 250.66 177.664L252.111 176.597C250.793 174.64 248.659 172.437 246.919 170.843C245.095 168.956 243.304 167.794 241.073 166.487Z" fill="#F5C45C"/>
<path d="M239.844 219.266C245.631 217.821 250.826 216.7 256.746 215.856C256.423 221 255.893 226.13 255.158 231.232C254.795 233.748 253.971 238.162 253.782 240.515C253.59 241.019 253.395 241.523 253.195 242.024C252.589 241.81 251.501 238.514 251.068 237.509C248.217 230.879 243.718 225.565 239.679 219.688L239.844 219.266Z" fill="#F6C0C0"/>
<path d="M252.111 176.597C254.062 179.363 255.82 181.954 256.715 185.276C260.158 201.532 259.995 225.604 255.875 241.819C255.017 238.063 256.678 233.398 256.834 229.387C257.127 221.903 260.163 209.862 258.085 202.593C258.115 208.32 256.343 236.331 253.782 240.515C253.971 238.162 254.795 233.748 255.158 231.232C255.893 226.13 256.423 221.001 256.746 215.856C250.826 216.7 245.631 217.821 239.844 219.266C238.91 219.141 238.856 218.926 238.111 218.282C242.42 216.127 252.401 214.319 257.266 214.007C257.507 204.926 257.177 196.692 255.401 187.768C254.9 185.169 254.75 185.231 252.323 184.217L253.188 182.657L253.307 182.221C252.686 180.401 251.749 179.248 250.66 177.664L252.111 176.597Z" fill="#120A34"/>
<path d="M264.827 176.849C265.437 176.517 265.418 176.648 266.242 176.643C273.494 183.22 276.749 196.872 277.189 206.396C278.609 237.13 265.514 265.697 247.556 289.904C243.539 295.318 238.221 300.468 234.165 305.671C233.224 305.578 233.08 305.682 232.383 305.102L232.648 304.319C234.755 302.306 238.947 297.392 240.912 295.078C259.422 273.29 273.624 245.895 275.359 216.954C276.243 202.203 274.694 188.345 264.827 176.849Z" fill="#120A34"/>
<path d="M156.762 460.621C142.689 401.95 146.763 341.037 178.651 288.723C187.264 274.592 193.233 267.668 204.202 255.486C207.818 264.109 209.77 267.989 216.168 275.093C210.293 290.467 199.51 308.654 190.416 322.481C164.593 361.746 149.936 406.059 156.348 453.314C156.671 455.693 156.905 457.99 157.517 460.331L156.762 460.621Z" fill="#E67079"/>
<path d="M176.866 515.275C179.123 517.08 183.438 524.025 185.627 526.661C198.183 541.784 214.154 553.892 231.916 562.268C236.693 564.52 241.662 566.524 246.241 569.114C261.608 586.038 277.746 607.756 287.432 628.407C244.014 612.187 198.034 582.243 182.208 536.605C179.947 530.083 177.501 522.193 176.866 515.275Z" fill="#945BA6"/>
<path d="M148.544 352.329C148.716 353.896 146.521 364.658 146.191 367.333C145.308 374.865 144.837 382.44 144.784 390.023C128.574 400.182 107.905 404.696 92.1839 415.935C70.8563 431.182 54.4325 450.546 45.3255 475.218C45.0717 473.64 45.1855 469.545 45.3737 467.873C51.0427 417.499 91.79 380.41 134.995 359.054C139.686 356.735 144.153 354.768 148.544 352.329Z" fill="#945BA6"/>
<path d="M153.221 332.01L153.697 332.153C153.6 333.537 152.419 336.909 152.005 338.518C151.005 342.413 150.053 346.296 149.121 350.209C140.114 354.83 132.832 357.968 123.715 363.128C87.5955 383.572 57.5431 411.849 46.3325 452.98L46.2102 453.145L45.9952 452.994C46.691 444.782 49.2507 431.446 51.3994 423.311C58.4408 396.657 72.5277 371.23 92.0425 351.692C94.4487 349.284 100.445 344.235 103.376 342.572C119.692 342.309 138.433 338.961 153.221 332.01Z" fill="url(#paint1_linear_10_284)"/>
<path d="M103.868 473.387L104.244 474.163C101.08 481.815 98.3814 488.532 95.8452 496.414C91.1218 509.452 90.4305 524.002 87.9082 537.214C82.9099 563.395 78.6399 586.472 84.7199 612.991C87.6417 625.736 91.1708 635.082 97.2417 646.862C79.2143 632.847 70.9283 617.929 66.7835 595.288C58.8361 551.884 79.8195 508.129 103.868 473.387Z" fill="#945BA6"/>
<path d="M285.282 178.195C289.138 178.57 292.054 178.757 295.704 180.085C310.471 185.452 322.191 197.635 320.253 214.283C319.115 224.065 314.189 232.817 308.49 240.662C308.289 240.783 308.089 240.904 307.889 241.025L307.553 240.447C307.077 240.471 307.335 240.513 306.804 240.22L306.595 238.388L306.229 238.795C305.53 236.696 305.415 232.294 304.922 229.691C303.449 221.902 301.356 214.138 298.17 206.87C296.983 206.646 297.117 206.592 296.077 205.555L295.688 205.161L295.096 205.761C294.531 199.348 287.288 188.529 282.514 183.978C282.118 182.492 282.007 181.917 281.333 180.562L279.756 179.105L279.961 178.856L281.704 178.921C281.688 178.932 284.134 178.741 285.282 178.195Z" fill="#945BA6"/>
<path d="M281.333 180.562L279.756 179.105L279.961 178.856L281.704 178.921C283.644 179.733 286.144 180.638 287.953 181.598C306.537 191.465 309.351 217.765 306.816 235.876C306.719 236.768 306.637 237.485 306.595 238.388L306.229 238.795C305.53 236.696 305.415 232.294 304.922 229.691C303.449 221.902 301.356 214.138 298.17 206.869C296.983 206.646 297.117 206.592 296.077 205.555L295.688 205.161L295.096 205.761C294.531 199.347 287.288 188.529 282.514 183.978C282.118 182.492 282.007 181.917 281.333 180.562Z" fill="#F5C45C"/>
<path d="M281.333 180.562C289.34 187.484 294.268 197.145 298.17 206.869C296.983 206.646 297.117 206.592 296.077 205.555L295.688 205.161L295.096 205.761C294.531 199.347 287.288 188.529 282.514 183.978C282.118 182.492 282.007 181.917 281.333 180.562Z" fill="#120A34"/>
<path d="M281.704 178.921C281.688 178.932 284.133 178.741 285.282 178.195C287.351 179.276 290.029 180.38 291.877 181.757C307.762 193.585 311.266 218.005 308.411 236.237L306.816 235.876C309.351 217.765 306.537 191.465 287.953 181.598C286.144 180.638 283.644 179.733 281.704 178.921Z" fill="url(#paint2_linear_10_284)"/>
<path d="M306.595 238.388C306.637 237.485 306.719 236.768 306.816 235.876L308.411 236.237L307.553 240.447C307.077 240.471 307.335 240.513 306.804 240.22L306.595 238.388Z" fill="#070310"/>
<path d="M389.321 281.857C389.719 282.765 389.979 284.469 390.381 285.654C392.752 292.624 396.193 302.546 402.984 306.345C404.193 307.021 404.917 306.442 406.152 305.982C406.907 308.891 406.855 318.762 406.964 322.126C407.256 331.111 408.207 336.183 410.736 344.569C408.92 342.167 407.765 340.801 405.7 338.616C399.08 332.466 391.435 328.972 382.743 333.363C378.679 320.581 382.4 293.676 389.321 281.857Z" fill="#E67079"/>
<path d="M389.142 333.219C393.909 333.51 395.678 334.139 399.904 336.398C407.013 340.196 417.385 356.493 419.172 363.998C417.105 365.729 415.845 366.315 413.285 367.069C396.052 368.061 386.739 349.105 383.147 335.043C385.657 333.745 386.439 333.564 389.142 333.219Z" fill="#EE97B1"/>
<path d="M327.127 161.283C327.172 161.285 327.841 161.287 327.835 161.542C327.796 163.019 327.229 169.443 327.26 170.454C327.468 177.322 329.69 181.38 333.869 186.582C332.814 190.519 326.062 205.769 322.205 206.702L321.888 205.665C320.466 197.833 317.804 193.378 312.295 187.748C312.775 175.982 317.101 167.665 327.127 161.283Z" fill="#FDFBED"/>
<path d="M342.731 142.733C343.885 144.144 342.207 154.343 349.134 162.798C349.058 166.098 348.494 169.367 347.459 172.501C345.575 178.144 342.884 181.883 337.508 184.611C332.759 176.381 329.536 174.065 330.886 162.811C331.911 154.27 336.055 147.935 342.731 142.733Z" fill="#F5C45C"/>
<path d="M295.189 143.348C297.328 147.256 300.149 158.209 301.847 163.065C303.585 168.034 305.454 174.172 306.958 179.274C307.433 180.885 307.279 181.309 306.523 182.474C304.431 181.964 301.451 180.36 299.412 179.362C293.847 176.998 289.099 173.711 283.81 171.957C287.701 162.164 290.037 153.09 295.189 143.348Z" fill="#FDFBED"/>
<path d="M359.742 121.728C360.958 122.012 359.896 126.126 360.022 128.057C360.388 133.677 361.412 136.776 364.601 141.279C362.074 148.993 358.781 155.537 351.753 159.934C351.479 159.697 350.951 159.03 350.777 158.702C346.496 150.614 344.958 139.94 349.614 131.664C352.153 127.149 355.499 124.439 359.742 121.728Z" fill="#F5C45C"/>
<path d="M377.971 103.541C378.364 110.353 376.089 110.15 378.888 119.096C377.627 121.98 370.788 138.907 366.487 136.35C359.375 123.961 367.381 110.646 377.971 103.541Z" fill="#FDFBED"/>
<path d="M322.402 209.796C336.669 213.287 349.707 220.668 358.103 233.049C350.061 230.986 329.296 221.234 321.957 216.994L322.402 209.796Z" fill="#FDFBED"/>
<path d="M391.203 89.5369C391.702 90.1708 390.267 97.5501 390.546 99.3615C390.723 100.508 390.782 102.137 391.053 103.487C389.168 108.143 387.224 113.261 382.561 115.862C379.099 105.07 382.266 96.2515 391.203 89.5369Z" fill="#FDFBED"/>
<path d="M422.368 307.785C427.355 310.094 429.518 310.614 434.945 311.181C434.991 312.097 434.99 313.014 434.943 313.929C434.775 316.744 433.608 317.984 431.646 319.776C427.714 321.486 423.158 319.704 419.491 318.015C420.131 313.659 420.697 311.877 422.368 307.785Z" fill="#FDFBED"/>
<path d="M411.334 70.7085C411.677 74.0472 397.393 96.0662 394.455 100.046C394.123 98.6661 394.397 94.1491 394.634 92.6357C396.288 82.0856 403.363 76.6325 411.334 70.7085Z" fill="#FDFBED"/>
<path d="M448.021 307.146L448.333 307.258C449.183 309.551 446.573 316.206 444.818 317.921C442.267 320.413 439.726 320.236 436.446 320.193L436.219 320.106C435.765 319.442 435.965 319.58 436.603 318.268C437.987 315.415 438.012 313.652 437.885 310.624C441.939 310.028 444.559 309.346 448.021 307.146Z" fill="#FDFBED"/>
<path d="M411.441 300.759C414.405 302.803 416.926 304.311 420.01 306.117L416.573 314.347L415.81 314.84C413.477 314.325 410.224 310.526 408.832 308.597C409.49 306.121 410.582 303.221 411.441 300.759Z" fill="#FDFBED"/>
<path d="M401.33 289.873C402.159 290.295 406.936 296.843 408.479 298.471C407.126 299.876 405.293 302.278 404.014 303.861L403.639 303.925C401.248 303.151 398.326 298.376 397.067 296.271C398.509 293.928 399.724 292.109 401.33 289.873Z" fill="#FDFBED"/>
<path d="M396.091 281.086C396.489 281.037 396.643 281.147 397.077 281.271C398.397 282.931 399.268 284.922 400.228 286.832L395.509 291.59L395.201 291.988C393.889 291.129 391.476 284.112 392.749 281.966C393.792 281.106 394.713 281.204 396.091 281.086Z" fill="#FDFBED"/>
<path d="M394.204 271.763C395.257 272.801 395.764 275.882 395.524 277.414C394.735 278.395 394.702 278.109 393.099 278.452L392.347 278.454C391.097 276.902 394.043 274.803 394.204 271.763Z" fill="#FDFBED"/>
<path d="M156.762 460.621L157.517 460.331C158.073 463.302 158.932 466.272 159.248 469.273C158.239 466.47 157.329 463.547 156.762 460.621Z" fill="#7F5083"/>
<path d="M106.304 469.591C105.798 470.784 104.876 473.147 104.244 474.163L103.868 473.387C104.714 471.834 105.265 471.029 106.304 469.591Z" fill="#7F5083"/>
<path d="M594.827 167.733C638.175 164.03 676.265 196.292 679.744 239.659C683.225 283.025 650.765 320.948 607.381 324.203C564.313 327.434 526.726 295.264 523.272 252.213C519.818 209.162 551.794 171.41 594.827 167.733Z" fill="#120A34"/>
<path d="M599.842 169.802C641.919 168.909 676.734 202.335 677.554 244.414C678.374 286.493 644.887 321.249 602.807 321.996C560.83 322.741 526.177 289.355 525.359 247.379C524.541 205.403 557.867 170.692 599.842 169.802Z" fill="#E67079"/>
<path d="M596.801 180.096C633.22 177.746 664.622 205.422 666.868 241.847C669.114 278.273 641.349 309.596 604.917 311.739C568.632 313.873 537.461 286.244 535.224 249.964C532.987 213.684 560.528 182.435 596.801 180.096Z" fill="#260D4A"/>
<path d="M594.117 182.811C629.025 178.971 660.418 204.202 664.178 239.118C667.939 274.035 642.637 305.37 607.712 309.051C572.9 312.72 541.687 287.518 537.938 252.713C534.19 217.909 559.321 186.639 594.117 182.811Z" fill="#FDFBED"/>
<path d="M597.775 198.346C599.366 198.903 599.254 198.582 600.076 199.699C601.9 212.894 600.057 227.851 601.646 241.144C601.779 242.248 602.443 243.424 602.985 244.395C612.544 249.588 622.221 254.471 631.751 259.651L630.4 268.756C621.951 262.674 613.599 256.155 605.292 249.873C603.272 248.352 601.628 246.624 599.009 246.229C598.48 246.149 597.349 245.395 597.469 244.894C599.485 236.513 597.784 227.083 597.935 218.41C597.98 215.882 597.69 200.837 597.398 200.229L597.775 198.346Z" fill="#260D4A"/>
<path d="M616.544 255.001C618.726 255.623 626.373 259.606 628.53 260.78C628.962 261.992 628.672 262.123 628.36 263.629C626.803 263.456 618.368 256.44 616.544 255.001Z" fill="#FDFBED"/>
<path d="M622.81 283.189C625.657 284.445 629.521 294.413 631.269 297.427C631.747 298.25 631.364 298.53 630.987 299.261C628.07 298.865 624.228 288.317 622.65 285.657C622.113 284.752 622.462 284.036 622.81 283.189Z" fill="#260D4A"/>
<path d="M598.879 288.196C599.938 288.265 600.018 288.273 601.035 288.565C601.837 290.042 601.494 300.875 601.428 303.212C600.719 303.202 600.013 303.157 599.304 303.121C598.746 301.787 598.798 290.263 598.879 288.196Z" fill="#260D4A"/>
<path d="M645.922 245.233C649.581 245.184 657.313 244.961 660.664 245.397C661.501 246.281 661.222 246.086 661.257 247.716C657.538 247.741 649.92 248.269 646.748 247.337C645.819 246.447 646.105 246.817 645.922 245.233Z" fill="#260D4A"/>
<path d="M640.784 268.633C643.384 269.678 651.205 274.107 653.099 276.422C653.453 276.857 653.103 277.25 652.834 278.023C650.829 277.566 642.162 272.439 640.61 270.467C640.309 270.084 640.647 269.248 640.784 268.633Z" fill="#260D4A"/>
<path d="M651.92 214.456C652.883 215.157 652.872 215.3 652.775 216.299C651.01 218.359 643.958 221.368 641.22 222.673C640.494 222.522 640.775 222.618 640.156 222.093L640.133 221.273C641.637 219.362 649.406 215.736 651.92 214.456Z" fill="#260D4A"/>
<path d="M629.151 194.715C630.507 195.025 630.391 194.85 631.008 195.87C630.925 198.876 627.523 204.58 626.062 207.382C624.92 207.122 625.379 207.394 624.593 206.62C624.324 204.641 628.093 197.11 629.151 194.715Z" fill="#260D4A"/>
<path d="M542.735 244.934C546.045 245.029 551.688 244.545 554.523 245.542C555.247 246.468 555.016 245.917 554.902 247.37C551.892 247.48 545.331 248.116 542.858 247.054C542.294 246.067 542.477 246.37 542.735 244.934Z" fill="#260D4A"/>
<path d="M570.133 197.268C570.329 197.27 570.524 197.273 570.719 197.275C573.583 197.43 577.381 206.922 577.005 209.12C576.208 209.027 575.717 209.15 575.368 208.668C574.046 206.844 570.193 199.348 570.133 197.268Z" fill="#260D4A"/>
<path d="M575.702 283.262C576.676 283.644 576.298 283.344 576.906 284.154C576.862 286.697 573.606 293.404 572.244 295.739C571.808 295.407 570.612 294.658 570.671 294.321C571.122 291.774 574.397 285.184 575.702 283.262Z" fill="#260D4A"/>
<path d="M550.583 214.352C553.385 214.745 558.698 218.793 560.917 220.804C561.4 221.241 561.137 221.55 561.005 222.496C558.813 222.655 553.05 218.303 551.187 216.742C550.364 216.051 550.546 215.276 550.583 214.352Z" fill="#260D4A"/>
<path d="M559.045 270.09C559.993 270.015 559.641 269.986 560.553 270.294L560.833 271.001C560.047 272.837 553.982 276.118 552.048 277.304L551.685 277.447C550.688 277.042 551.127 277.333 550.484 276.378C551.109 274.411 557.094 271.274 559.045 270.09Z" fill="#260D4A"/>
<path d="M598.254 185.621C598.752 185.73 599.848 185.956 599.955 186.479C600.471 189.005 600.863 195.39 599.892 197.624C598.906 197.502 598.946 197.563 598.227 196.893C597.122 194.306 597.809 188.442 598.254 185.621Z" fill="#260D4A"/>
<path d="M597.398 200.229C595.551 199.387 593.865 197.754 593.574 195.676L593.975 195.278C595.771 195.622 596.498 196.899 597.775 198.346L597.398 200.229Z" fill="#120A34"/>
<path d="M603.957 194.117C604.812 194.888 604.534 194.421 604.77 195.595C604.127 197.703 602.996 198.554 601.305 199.972C600.981 199.785 600.856 199.574 600.589 199.273C600.628 197.852 602.942 195.371 603.957 194.117Z" fill="#120A34"/>
<path d="M590.12 9.13624C629.399 6.72361 663.181 36.644 665.531 75.9265C667.881 115.209 637.906 148.943 598.62 151.23C559.422 153.512 525.781 123.619 523.437 84.4259C521.093 45.2325 550.93 11.5433 590.12 9.13624Z" fill="#260D4A"/>
<path d="M589.945 11.2333C627.947 8.7159 660.8 37.4706 663.339 75.4718C665.878 113.473 637.142 146.342 599.142 148.903C561.112 151.465 528.211 122.701 525.67 84.6695C523.129 46.6375 551.912 13.7527 589.945 11.2333Z" fill="#F5C45C"/>
<path d="M652.053 94.0917C645.122 123.1 617.743 142.46 588.083 139.327C558.424 136.194 535.695 111.539 534.978 81.7232C534.261 51.9066 555.78 26.1888 585.255 21.6342C614.729 17.0796 643.007 35.1029 651.324 63.7448C652.13 66.5189 652.731 69.3484 653.125 72.21C654.128 79.5074 653.765 86.9272 652.053 94.0917Z" fill="#260D4A"/>
<path d="M650.461 91.9641C644.593 120.213 618.649 139.704 589.884 137.472C561.117 135.241 538.49 111.983 537.048 83.1666C535.608 54.3505 555.803 28.9513 584.203 23.8613C612.602 18.7714 640.361 35.5761 649.017 63.099C650.089 66.5078 650.841 70.0089 651.261 73.5568C651.988 79.6956 651.718 85.9114 650.461 91.9641Z" fill="#FDFBED"/>
<path d="M592.796 39.6409L593.905 39.487C594.33 40.1201 594.309 40.0693 594.343 40.8323L594.549 40.2696C595.176 42.2625 595.282 50.1694 595.433 52.6769C595.996 62.0195 595.664 72.5052 596.565 81.7589C593.805 86.3326 583.049 110.269 577.493 108.123C575.352 103.289 592.726 83.189 592.708 80.1C592.637 68.6984 593.068 50.5164 592.796 39.6409Z" fill="#260D4A"/>
<path d="M585.582 95.9186C585.606 97.8251 582.092 102.924 580.701 104.407C580.27 102.789 584.468 97.5026 585.582 95.9186Z" fill="#A9A5BE"/>
<path d="M592.796 39.6409C591.183 40.9387 589.035 43.0181 587.173 41.0478C586.798 37.9505 590.721 35.5038 593.302 34.9457L595.387 35.2673C597.644 35.9364 601.462 39.2715 601.038 41.9889C598.396 43.3869 596.376 39.6356 594.768 39.5788L594.549 40.2696L594.343 40.8323C594.309 40.0692 594.33 40.1201 593.905 39.487L592.796 39.6409Z" fill="#260D4A"/>
<path d="M634.048 81.1859C637.437 81.1936 645.377 80.9718 648.321 81.3811C648.958 82.2067 648.7 82.2032 648.582 83.5962C643.969 83.4437 639.408 83.6186 634.77 83.4765C633.914 82.688 634.195 82.7447 634.048 81.1859Z" fill="#260D4A"/>
<path d="M542.793 81.0193C545.448 80.9144 551.944 80.2315 553.68 81.8079L553.413 82.4256C552.204 83.2366 552.106 83.1855 550.588 83.161C548.06 83.1491 540.727 84.0943 539.164 82.3291L539.385 81.5056C540.262 80.9941 541.71 81.0655 542.793 81.0193Z" fill="#260D4A"/>
<path d="M592.611 119.434C593.12 119.552 594.144 119.709 594.232 120.274C594.705 123.289 595.2 131.14 594.203 133.825C593.417 133.776 593.467 133.804 592.829 133.346C591.848 130.94 592.319 122.244 592.611 119.434Z" fill="#260D4A"/>
<path d="M547.393 53.0946C550.096 53.0239 555.399 57.3534 557.964 58.9227C558.91 59.5013 558.887 60.1947 558.987 61.0644C555.881 61.0637 551.014 57.2324 548.526 55.3503C547.32 54.4386 547.472 54.2518 547.393 53.0946Z" fill="#120A34"/>
<path d="M566.979 32.4765C568.792 33.9345 572.535 40.0142 573.314 42.3863C573.654 43.4246 573.434 43.3106 572.881 44.2174C570.873 43.6604 567.747 37.5025 566.816 35.5107C566.141 34.0641 566.441 33.7609 566.979 32.4765Z" fill="#260D4A"/>
<path d="M629.732 100.679C631.328 100.991 639.124 105.453 640.474 106.784C640.871 107.175 640.674 107.517 640.62 108.242C637.939 108.302 632.319 104.828 630.178 102.98C629.319 102.237 629.612 101.66 629.732 100.679Z" fill="#260D4A"/>
<path d="M641.171 54.9326C642.217 55.5679 641.904 55.1299 642.226 56.2263C641.372 57.4773 633.073 61.0329 631.121 61.9992C630.619 61.897 630.652 61.7963 630.183 61.4058L630.16 60.7125C631.711 58.8045 638.685 55.91 641.171 54.9326Z" fill="#120A34"/>
<path d="M622.06 33.5055C622.84 34.1296 622.545 33.7645 622.86 34.6849C622.364 37.2026 617.937 43.2196 616.304 45.6327C615.636 45.0653 615.6 45.1262 615.356 44.3027C616.015 41.4722 620.121 35.7872 622.06 33.5055Z" fill="#120A34"/>
<path d="M570.668 115.948L571.503 116.333L571.722 117.061C571.005 120.244 567.658 124.74 565.746 127.584C565.253 127.248 565.096 127.019 564.676 126.583C564.486 124.516 569.206 118.137 570.668 115.948Z" fill="#120A34"/>
<path d="M613.561 115.642C614.379 115.782 614.738 115.671 615.167 116.154C616.787 117.982 620.436 123.954 620.549 126.241C619.553 126.13 618.946 126.102 618.329 125.307C616.749 123.273 613.426 118.025 613.561 115.642Z" fill="#120A34"/>
<path d="M557.775 102.108C557.947 102.195 558.475 102.641 558.65 102.781L558.569 103.541C557.036 105.294 551.338 109.095 549.097 110.663C548.274 110.024 548.529 110.425 548.285 109.434C549.464 107.234 555.51 103.588 557.775 102.108Z" fill="#120A34"/>
<path d="M593.302 34.9457C593.176 32.6237 592.71 29.1937 593.031 27.0909L593.556 26.5727L594.259 26.5954C595.478 28.2183 595.321 33.0126 595.387 35.2673L593.302 34.9457Z" fill="#260D4A"/>
<path d="M480.867 113.822C508.94 111.449 533.619 132.29 535.981 160.364C538.342 188.438 517.492 213.109 489.416 215.46C461.357 217.809 436.704 196.973 434.343 168.914C431.982 140.855 452.809 116.193 480.867 113.822Z" fill="#120A34"/>
<path d="M479.122 115.872C506.055 112.479 530.625 131.599 533.952 158.54C537.279 185.481 518.098 210.004 491.148 213.264C464.293 216.512 439.875 197.413 436.56 170.566C433.245 143.72 452.284 119.254 479.122 115.872Z" fill="#E67079"/>
<path d="M526.91 171.542C523.262 193.368 503.258 208.584 481.251 206.274C459.243 203.963 442.835 184.924 443.799 162.816C444.764 140.709 462.767 123.17 484.892 122.785C507.017 122.4 525.621 139.3 527.355 161.361C527.622 164.76 527.473 168.179 526.91 171.542Z" fill="#120A34"/>
<path d="M525.169 170.419C522.04 191.921 502.301 206.98 480.737 204.316C459.172 201.652 443.691 182.242 445.89 160.625C448.088 139.008 467.16 123.113 488.819 124.844C510.478 126.576 526.782 145.3 525.517 166.992C525.45 168.139 525.334 169.283 525.169 170.419Z" fill="#FDFBED"/>
<path d="M479.942 138.433C481.251 138.467 482.342 138.588 482.477 140.113C482.801 146.313 483.874 152.4 484.478 158.56C484.776 161.591 486.605 165.342 485.684 166.956C481.399 174.465 480.313 183.908 475.83 191.358C474.33 193.849 471.633 193.355 469.778 197.477C469.274 197.826 469.166 197.816 468.585 198.043L468.143 197.749C467.896 193.128 481.949 171.429 482.676 166.068C483.753 158.133 479.708 147.015 479.942 138.433Z" fill="url(#paint3_linear_10_284)"/>
<path d="M474.43 187.133C474.652 188.895 473.462 191.148 472.409 192.527C472.141 191.158 473.746 188.491 474.43 187.133Z" fill="#A9A5BE"/>
<path d="M484.924 188.003C485.683 188.158 485.659 188.162 486.342 188.538C487.262 190.802 486.716 198.945 486.615 201.756C485.742 201.581 485.882 201.617 485.079 201.304C484.21 198.96 484.749 190.835 484.924 188.003Z" fill="#120A34"/>
<path d="M453.948 144.01C456.515 144.29 460.633 147.87 462.573 149.668C463.609 150.627 463.342 150.407 463.349 151.707L463.156 151.682C460.827 151.395 456.777 147.743 454.841 146.231C453.819 145.433 453.977 145.039 453.948 144.01Z" fill="#120A34"/>
<path d="M510.845 164.104C513.215 164.361 520.977 164.02 522.118 165.194L521.743 165.969C519.406 166.49 514.115 167.204 511.741 166.143C510.901 165.768 510.99 165.006 510.845 164.104Z" fill="#260D4A"/>
<path d="M468.283 131.164C470.062 132.001 474.046 140.018 473.705 141.957L472.507 141.732C470.71 140.184 467.631 133.631 468.283 131.164Z" fill="#120A34"/>
<path d="M503.057 130.694C503.693 131.087 503.625 131.096 504.163 131.642C504.319 134.041 501.076 138.995 499.767 141.202C499.336 141.005 499.044 140.775 498.645 140.51C498.442 138.675 501.981 132.772 503.057 130.694Z" fill="#120A34"/>
<path d="M448.958 164.065C451.489 164.055 458.642 163.628 460.137 164.836L460.132 165.939C457.437 166.033 450.91 166.83 449.117 165.539L448.958 164.065Z" fill="#260D4A"/>
<path d="M462.5 179.146C463.149 179.682 462.96 179.442 463.285 180.219C462.47 182.376 456.949 185.955 454.98 187.313C454.428 187.064 454.683 187.202 454.287 186.518C454.518 185.018 461.019 180.341 462.5 179.146Z" fill="#120A34"/>
<path d="M509.098 177.6C510.979 177.872 517.042 182.961 517.39 184.879C514.429 184.856 511.477 181.558 509.488 179.549C508.717 178.77 508.987 178.614 509.098 177.6Z" fill="#120A34"/>
<path d="M482.881 129.286C483.611 129.827 483.985 130.533 484.394 131.327L484.967 131.338L485.581 129.785L486.071 129.583C486.17 130.004 486.68 135.096 486.654 135.257C485.609 135.492 484.271 135.361 483.178 135.316C482.644 134.406 482.703 134.871 482.948 133.884C483.814 133.776 483.385 133.772 484.235 133.891C483.532 133.023 482.856 132.133 482.206 131.225C482.071 129.906 481.95 130.554 482.881 129.286Z" fill="#120A34"/>
<path d="M514.905 144.789L515.915 144.906L516.302 145.414C515.849 147.224 511.158 150.509 509.44 151.86C508.764 151.754 509.047 151.792 508.395 151.286C508.569 149.644 513.266 146.239 514.905 144.789Z" fill="#120A34"/>
<path d="M498.739 187.448C501.276 187.62 505.167 194.175 504.895 196.505C503.094 195.675 498.89 189.188 498.739 187.448Z" fill="#120A34"/>
<path d="M525.517 166.992C526.442 165.634 525.359 162.795 526.556 161.178L527.355 161.361C527.622 164.76 527.473 168.179 526.91 171.542C526.575 170.338 526.678 169.922 525.916 169.164L525.605 170.773L525.169 170.419C525.334 169.283 525.45 168.139 525.517 166.992Z" fill="#070310"/>
<path d="M212.896 327.733C213.975 328.505 216.535 333.562 217.369 335.073C225.782 350.308 235.017 366.2 249.897 375.954C265.924 386.459 280.554 385.933 298.425 381.515C306.772 379.425 314.953 376.727 322.905 373.443C333.988 368.892 345.192 363.459 356.868 360.517C361.783 359.279 367.046 359.142 372.106 358.986C370.573 354.817 365.308 341.794 368.164 338.649L368.956 338.675C370.741 339.587 372.11 345.406 372.905 347.61C374.829 353.024 377.308 358.225 380.302 363.129C387.033 374.11 396.124 383.271 409.695 383.744C422.849 384.202 428.161 368.457 423.034 358.119C422.056 356.148 420.073 352.089 420.535 350.064C421.33 349.014 420.835 349.282 421.953 349.042C423.481 349.553 424.029 350.4 424.947 351.683C437.111 368.708 426.734 394.97 403.17 389.042C388.739 385.412 381.988 376.666 374.473 364.641C366.233 364.668 359.454 365.338 351.639 368.118C340.69 372.012 330.17 376.878 319.307 380.993C307.888 385.318 296.35 388.339 284.203 389.62C289.38 407.243 300.952 425.614 312.544 439.727C319.074 447.678 326.466 455.158 333.405 462.769C342.107 472.196 350.408 481.985 358.287 492.109C392.44 535.633 416.097 584.659 432.746 637.215C435.863 647.053 440.221 660.087 442.339 669.981L432.539 670.19C430.237 660.622 426.915 649.745 423.969 640.363C407.761 588.906 383.984 538.986 350.406 496.531C339.504 482.747 327.803 468.968 315.689 456.25C297.056 436.689 283.792 416.176 275.724 390.153C264.776 389.476 257.43 387.432 247.867 381.833C229.721 371.209 217.628 347.863 212.896 327.733Z" fill="#260D4A"/>
<path d="M315.841 306.646C331.257 306.758 334.293 318.647 324.305 328.774C317.383 335.792 306.931 340.608 297.011 340.836C284.21 340.412 276.94 332.233 286.498 320.819C293.546 312.402 305.014 307.651 315.841 306.646Z" fill="#260D4A"/>
<path d="M314.247 309.091C325.623 307.468 332.046 315.619 324.341 325.426C318.084 333.391 308.102 337.34 298.257 338.666C287.826 339.019 279.076 333.356 287.576 322.786C293.887 314.939 304.374 310.315 314.247 309.091Z" fill="#F6C0C0"/>
<path d="M513.682 309.933C516.31 321.308 521.338 333.533 531.707 340.054C532.338 340.448 532.979 340.827 533.629 341.191C523.064 350.189 516.802 358.969 513.972 372.938C513.561 372.185 513.259 371.546 512.895 370.773L512.098 370.446C511.788 370.589 511.098 370.88 510.844 371.053C510.086 366.983 509.187 363.759 507.559 359.885C504.768 353.246 500.007 346.215 493.083 343.427C492.112 343.035 492.07 343.119 491.157 342.484C491.45 341.596 491.742 341.699 492.808 341.066C501.221 335.216 506.454 328.656 510.396 319.089C511.621 316.118 512.522 312.756 513.682 309.933Z" fill="#FDFBED"/>
<path d="M513.682 309.933C516.31 321.308 521.338 333.533 531.707 340.054C532.338 340.448 532.979 340.827 533.629 341.191C523.064 350.189 516.802 358.969 513.972 372.938C513.561 372.185 513.259 371.546 512.895 370.773C515.23 358.448 521.609 349.914 530.491 341.549C521.068 332.925 516.943 327.983 513.463 315.527C510.103 326.18 503.255 335.893 493.866 342.046L492.808 341.066C501.221 335.216 506.454 328.656 510.396 319.089C511.621 316.118 512.522 312.756 513.682 309.933Z" fill="#120A34"/>
<path d="M492.808 341.066L493.866 342.046C503.729 347.453 511.759 359.08 512.098 370.446C511.788 370.589 511.098 370.88 510.844 371.053C510.086 366.983 509.187 363.759 507.559 359.885C504.768 353.246 500.007 346.215 493.083 343.427C492.112 343.035 492.07 343.119 491.157 342.484C491.45 341.596 491.742 341.699 492.808 341.066Z" fill="#260D4A"/>
<path d="M212.246 216.029C214.186 216.963 236.576 248.341 239.052 252.847L237.898 252.384C233.823 250.731 232.921 251.569 231.303 255.469C230.479 259.025 230.695 259.965 231.369 263.435C219.446 258.047 209.833 227.442 212.246 216.029Z" fill="#260D4A"/>
<path d="M215.367 223.19C216.407 224.131 219.609 228.517 220.739 230.007C225.557 236.266 230.202 242.657 234.668 249.171C232.46 250.43 231.579 250.961 230.254 253.116C229.45 254.831 229.149 256.218 228.678 258.031C220.385 247.981 217.515 235.7 215.367 223.19Z" fill="#F6C0C0"/>
<path d="M479.891 9.39656C480.928 10.9576 482.122 18.557 483.28 21.0645C485.719 26.3445 488.815 28.2276 493.864 30.3561C486.31 34.6616 483.627 39.2497 481.75 47.6912C481.324 49.6083 481.487 51.6743 480.727 53.4375C479.472 52.1067 479.378 48.9919 478.812 46.8523C476.525 38.2057 473.592 35.4844 466.261 30.9893C475.415 26.2284 474.872 23.5527 478.075 14.0343C478.606 12.457 478.958 10.7743 479.891 9.39656Z" fill="#120A34"/>
<path d="M479.339 14.3253C480.038 15.0881 481.454 20.0203 481.997 21.3797C483.982 26.346 486.16 28.484 490.801 30.6524C484.352 34.4886 483.053 39.0717 480.685 45.6846L480.567 45.7209C479.664 45.3214 478.148 39.4221 476.482 37.3084C473.594 33.6455 473.387 33.692 469.476 31.3023C476.112 26.7405 477.494 22.1312 479.339 14.3253Z" fill="#FDFBED"/>
<path d="M560.046 390.554L560.767 390.98C562.915 399.634 566.057 402.124 573.105 406.452C565.406 411.869 562.978 418.112 560.835 426.83C558.598 425.767 558.551 412.199 547.685 406.29C555.591 403.394 557.844 397.952 560.046 390.554Z" fill="#120A34"/>
<path d="M560.22 394.546C560.642 394.963 560.517 394.777 560.786 395.28C564.303 401.858 564.653 402.574 570.717 406.465C565.169 412.06 563.12 414.064 560.945 421.707C560.106 421.728 558.557 416.889 558.093 415.739C556.39 411.517 553.961 409.35 550.573 406.543C555.867 402.58 557.691 400.668 560.22 394.546Z" fill="#FDFBED"/>
<path d="M421.608 250.24C432.895 251.169 439.89 271.738 427.623 272.779C417.47 270.493 408.45 253.082 421.608 250.24Z" fill="#260D4A"/>
<path d="M420.621 254.377C427.029 255.014 433.848 264.546 428.751 269.277C421.567 269.354 415.154 258.195 420.621 254.377Z" fill="#FDFBED"/>
<path d="M602.9 346.492L603.506 347.033C603.59 347.688 603.696 348.34 603.825 348.988C605.071 355.061 610.522 359.719 615.465 362.896C609.237 368.422 605.781 373.722 604.209 381.929C602.452 382.039 602.306 376.967 601.477 374.756C599.336 369.04 597.08 365.974 591.979 362.734C599.416 358.357 601.396 354.608 602.9 346.492Z" fill="#120A34"/>
<path d="M603.13 351.548C605.492 356.469 608.55 359.953 613.084 362.933C607.845 368.756 607.19 369.58 604.053 376.662L603.729 376.662C603.247 376.151 603.247 376.275 603.067 375.665C601.231 369.447 599.091 366.929 594.445 362.558C599.038 359.644 601.297 356.565 603.13 351.548Z" fill="#FDFBED"/>
<path d="M310.063 261.091C318.259 260.711 325.892 266.501 329.042 273.872C329.485 274.91 329.629 275.536 329.168 276.536L328.372 276.661C327.417 275.369 326.368 274.059 325.415 272.771C320.61 266.257 309.884 261.663 304.579 270.253C300.734 276.478 301.125 282.726 302.748 289.601C302.86 289.987 302.806 290.32 302.8 290.753C302.443 291.129 301.789 291.584 301.332 291.215C296.878 287.623 294.914 287.713 289.26 288.575L288.962 288.24C290.495 285.357 295.232 286.117 297.831 286.556C297.278 283.565 297.255 281.639 297.217 278.601C293.861 277.951 288.566 276.097 288.024 272.083C289.762 271.081 291.48 274.823 293.423 275.644C294.701 276.185 296.026 276.355 297.373 276.593C299.188 268.323 301.888 264.013 310.063 261.091Z" fill="#260D4A"/>
<path d="M512.098 370.446L512.895 370.773C513.259 371.546 513.561 372.185 513.972 372.938C513.728 374.451 513.69 375.68 512.853 376.93L512.372 376.948C511.396 375.195 511.217 373.088 510.844 371.053C511.098 370.88 511.788 370.589 512.098 370.446Z" fill="#260D4A"/>
<defs>
<linearGradient id="paint0_linear_10_284" x1="252.749" y1="167.641" x2="251.245" y2="170.478" gradientUnits="userSpaceOnUse">
<stop stop-color="#000017"/>
<stop offset="1" stop-color="#1A0B3B"/>
</linearGradient>
<linearGradient id="paint1_linear_10_284" x1="109.019" y1="437.09" x2="89.7248" y2="346.071" gradientUnits="userSpaceOnUse">
<stop stop-color="#79B799"/>
<stop offset="1" stop-color="#78A79D"/>
</linearGradient>
<linearGradient id="paint2_linear_10_284" x1="308.15" y1="207.266" x2="285.921" y2="207.731" gradientUnits="userSpaceOnUse">
<stop stop-color="#00000C"/>
<stop offset="1" stop-color="#0B092F"/>
</linearGradient>
<linearGradient id="paint3_linear_10_284" x1="472.711" y1="167.529" x2="483.984" y2="170.691" gradientUnits="userSpaceOnUse">
<stop stop-color="#08052B"/>
<stop offset="1" stop-color="#190846"/>
</linearGradient>
</defs>
</svg>
