<svg width="750" height="750" viewBox="0 0 750 750" fill="none" xmlns="http://www.w3.org/2000/svg">
<path d="M442.508 103.574C444.966 101.737 449.789 97.6981 452.546 97.1356C453.925 97.482 453.338 97.1524 454.347 98.1984C454.49 98.6504 454.722 99.4081 454.487 99.8524C448.324 111.502 440.536 132.419 429.823 139.765C428.901 146.109 423.852 153.762 417.662 155.958C414.685 164.885 412.724 171.324 404.273 176.415C402.533 185.775 398.212 195.321 388.64 198.759C387.961 210.871 384.871 219.318 373.336 224.709C370.795 231.76 369.162 234.809 364.981 241.18C381.942 246.451 391.104 254.832 400.456 269.567C408.739 271.509 417.304 271.941 425.74 270.84C439.865 269.031 451.608 262.738 466.472 266.898C490.459 273.61 502.082 298.955 496.205 322.276C494.389 329.416 492.608 333.427 487.444 338.771C487.921 343.827 486.475 350.738 483.226 354.739C481.142 357.325 478.052 358.898 474.734 359.06C472.673 359.169 470.647 358.267 468.738 358.062C467.632 357.943 464.95 358.908 463.646 358.845C456.944 358.516 451.413 354.112 446.587 350.173C447.23 360.569 447.675 370.716 451.398 380.618C452.58 383.762 453.818 386.773 455.173 389.874C456.641 393.236 459.604 399.434 456.61 402.67C454.356 405.107 449.548 407.222 446.257 407.328C439.557 407.648 432.718 403.788 427.924 399.446C417.126 389.667 412.877 372.047 412.298 358.046C411.711 343.808 415.541 328.623 421.726 315.842C424.041 311.058 427.001 306.546 428.724 301.459C428.096 298.971 426.439 289.048 429.159 287.752C429.489 287.875 430.313 288.029 430.33 288.436C431.191 309.524 440.434 329.91 460.293 339.325C472.621 345.17 483.512 338.41 488.337 326.831C492.818 316.256 492.792 304.309 488.264 293.753C484.535 284.927 477.094 277.612 468.219 274.068C455.44 268.962 442.579 274.027 429.896 276.4C423.65 277.569 414.891 277.867 408.589 277.083C394.671 275.294 381.2 270.969 368.842 264.323C364.946 262.251 359.203 258.522 355.628 256.874C352.643 265.542 345.924 278.774 338.352 284.293C337.887 271.15 336.78 260.839 332.463 248.309C331.394 260.704 327.46 275.677 321.92 286.659C308.779 312.711 286.555 339.741 257.718 348.154C261.812 340.782 266.847 333.353 270.654 325.94C276.501 314.556 283.957 298.481 286.094 286.09C275.299 259.078 258.428 245.132 237.803 226.054C236.551 250.485 236.593 273.665 247.808 296.469C249.848 300.618 253.269 305.211 255.989 309.001C251.542 323.508 241.441 341.16 232.983 353.707C232.776 399.521 244.349 447.763 277.418 481.348C292.819 496.991 310.57 503.001 327.448 517.125C354.381 539.665 369.023 561.251 382.493 593.068C389.064 608.343 394.282 624.165 398.089 640.352C399.826 647.528 406.808 679.235 404.019 684.841L403.43 685.078C401.467 684.211 399.707 680.118 398.448 678.347C376.719 647.785 343.176 629.569 309.305 615.451C301.959 612.388 293.464 609.298 286.384 605.822C305.361 627.425 329.343 658.46 335.019 688.389C335.063 688.62 334.822 689.096 334.717 689.329L334.138 689.549C330.837 687.952 328.079 684.729 325.041 683.02C304.338 671.369 280.524 665.021 259.358 654.406C264.176 669.178 272.568 683.593 281.043 696.571C282.294 698.488 286.262 703.764 286.337 705.676C285.765 706.25 286.091 706.075 285.392 706.259C282.563 706.067 256.058 705.879 255 706.403C252.775 707.194 248.116 706.704 245.629 706.802C214.16 708.047 182.699 699.27 160.012 676.482C154.456 670.9 150.011 665.005 145.433 658.442C149.442 672.353 153.434 689.3 158.388 702.543L149.465 702.595C145.188 688.494 140.694 674.799 137.39 660.389C134.504 649.407 133.498 637.23 130.31 626.424C126.654 614.037 125.002 603.543 123.734 590.742C116.814 622.907 121.442 656.482 136.807 685.575C102.64 677.559 78.8424 643.313 72.5315 610.369C67.5763 584.502 73.2744 557.626 84.6839 534.186C88.8048 525.721 94.6099 516.866 99.8524 509.106C99.0758 508.75 97.2546 508.454 96.3003 508.198C92.499 507.18 90.794 506.262 87.5783 504.126C82.23 515.47 80.5725 522.106 77.5075 533.882C76.428 529.383 75.97 521.252 75.7112 516.531C74.0339 488.851 78.629 461.149 89.154 435.493C86.6149 432.16 85.4696 411.339 85.4091 406.469C85.2801 396.062 84.9117 381.982 87.2411 371.829C67.8155 365.349 45.6941 359.203 35 339.4C50.8581 342.68 75.7924 335.425 90.244 328.138C95.4509 325.512 100.198 322.625 105.091 319.457C105.098 319.308 105.108 319.159 105.112 319.011C105.324 311.675 117.706 285.003 121.731 276.945C108.401 271.599 98.4538 263.407 91.7735 250.439C106.989 258.642 120.103 259.04 136.96 255.02C137.987 251.582 146.035 240.322 148.388 236.708C157.003 223.481 168.129 210.797 179.126 199.505C208.83 168.471 244.369 143.608 283.706 126.346C326.801 107.482 373.72 98.9911 420.693 101.555C424.775 101.767 439.302 102.305 442.508 103.574Z" fill="black"/>
<path d="M136.96 255.02C137.987 251.582 146.035 240.322 148.388 236.708C157.003 223.481 168.129 210.797 179.126 199.505C208.83 168.471 244.37 143.608 283.706 126.346C326.801 107.482 373.72 98.9911 420.693 101.555C424.775 101.767 439.302 102.305 442.508 103.574C436.039 108.83 431.498 112.202 427.365 119.583C419.523 123.136 416.592 127.121 413.133 134.976C406.632 136.221 397.972 145.753 396.183 151.943C385.861 156.359 380.165 162.751 377.674 173.742C368.815 177.322 365.941 183.715 362.749 192.105C357.111 193.08 352.36 197.606 349.2 202.155C347.987 203.924 346.891 205.769 345.918 207.68C342.814 197.248 339.06 185.98 335.188 175.767C334.421 173.742 331.868 171.181 329.329 172.207C323.099 175.388 320.336 187.331 317.59 193.34C315.859 197.126 314.125 202.335 313.123 205.886L308.208 205.368C296.727 193.578 282.381 186.865 265.783 186.461C210.97 185.129 185.739 243.005 136.96 255.02Z" fill="white"/>
<path d="M255 706.403C253.258 704.09 248.146 703.307 244.991 702.269C214.57 692.369 189.3 670.837 174.696 642.373C155.723 604.782 157.606 557.766 170.48 518.571C170.164 521.741 170.297 524.827 170.305 527.946C170.425 578.796 199.314 621.403 243.309 645.36C247.368 647.571 252.596 650.467 256.51 653.001C262.174 669.979 274.928 691.853 285.392 706.259C282.563 706.067 256.058 705.879 255 706.403Z" fill="white"/>
<path d="M87.2411 371.829C103.793 376.076 112.677 377.528 129.959 377.798C112.245 392.547 98.1999 414.511 89.154 435.493C86.6149 432.16 85.4696 411.339 85.4091 406.469C85.2801 396.062 84.9117 381.982 87.2411 371.829Z" fill="white"/>
<path d="M87.5784 504.126C100.996 478.072 119.821 458.698 146.217 445.794C142.002 450.86 137.896 457.113 133.972 462.51L109.713 495.408C106.52 499.73 103.07 505.019 99.8525 509.106C99.0758 508.75 97.2546 508.454 96.3003 508.198C92.4991 507.18 90.794 506.262 87.5784 504.126Z" fill="white"/>
<path d="M121.731 276.945C133.536 280.947 138.753 281.227 150.934 280.566C134.814 296.684 124.076 306.898 105.091 319.457C105.098 319.308 105.108 319.159 105.112 319.011C105.325 311.675 117.706 285.003 121.731 276.945Z" fill="white"/>
<path d="M229.314 359.028C229.358 405.008 241.113 449.357 273.489 483.455C284.404 494.95 295.891 500.501 308.839 508.814C332.199 523.975 351.552 544.553 365.252 568.798C368.176 573.867 377.161 589.701 378.503 595.201C379.043 596.994 379.492 596.979 379.328 598.935C379.879 599.744 381.294 601.389 381.583 602.101C387.058 615.575 392.143 631.093 394.78 645.352L394.546 645.735L394.371 645.768C380.94 625.116 362.697 611.598 341.075 600.34C335.644 597.512 329.16 594.331 323.448 592.154L322.683 592.129L322.422 592.401L321.959 592.252L321.602 592.405L322.456 592.962L322.127 593.303C327.818 596.368 335.027 599.215 341.134 602.434C363.113 614.015 378.706 626.159 393.021 646.541C398.559 655.372 398.284 663.659 400.388 673.933C379.381 645.089 346.515 625.999 314.161 612.778C270.814 595.066 235.358 583.831 211.384 539.878C198.299 515.888 194.198 489.124 194.685 462.012C194.798 455.748 195.26 443.781 196.977 437.881C197.814 435.404 197.048 433.814 197.868 432.562C200.692 419.687 203.675 408.616 208.954 396.406C210.134 393.675 211.5 389.755 212.954 387.263L213.268 387.334L213.626 389.173C213.622 386.717 213.502 386.068 215.015 384.212C216.343 380.262 226.658 363.219 229.314 359.028Z" fill="white"/>
<path d="M229.314 359.028C229.358 405.008 241.113 449.357 273.489 483.455C284.404 494.95 295.892 500.501 308.839 508.814C332.199 523.975 351.552 544.553 365.252 568.798C368.176 573.867 377.161 589.701 378.503 595.201C379.043 596.994 379.492 596.979 379.329 598.935C362.742 577.858 342.3 561.036 318.807 548.194C300.974 538.447 287.99 532.539 272.296 519.387C263.126 511.841 255.018 503.09 248.193 493.371C229.136 466.385 216.904 426.553 213.98 393.811C213.732 392.047 213.674 390.959 213.626 389.173C213.622 386.717 213.502 386.068 215.015 384.212C216.343 380.262 226.658 363.219 229.314 359.028Z" fill="white"/>
<path d="M213.98 393.811L215.496 391.626C220.881 439.319 236.242 488.323 275.079 519.485C290.033 531.484 302.61 537.433 319.308 546.563C342.85 559.435 361.594 574.404 378.503 595.201C379.043 596.994 379.492 596.979 379.329 598.935C362.742 577.858 342.3 561.036 318.807 548.194C300.974 538.447 287.99 532.539 272.296 519.387C263.126 511.842 255.018 503.09 248.193 493.371C229.136 466.386 216.904 426.553 213.98 393.811Z" fill="black"/>
<path d="M215.015 384.212C215.154 386.685 215.314 389.157 215.496 391.626L213.98 393.811C213.732 392.047 213.674 390.959 213.626 389.173C213.622 386.717 213.502 386.068 215.015 384.212Z" fill="black"/>
<path d="M196.977 437.881C198.575 443.588 199.542 453.528 201.285 458.525C202.013 463.671 207.407 483.048 209.649 487.62C223.877 529.421 251.873 561.454 291.711 580.173C293.581 581.052 298.136 583.346 299.945 583.875C300.822 583.544 301.614 583.464 302.536 583.317C308.913 586.028 317.319 589.28 323.448 592.154L322.683 592.129L322.422 592.401L321.959 592.252L321.602 592.405L322.456 592.963L322.127 593.303C327.818 596.368 335.027 599.215 341.134 602.434C363.113 614.015 378.706 626.159 393.021 646.541C398.559 655.372 398.284 663.659 400.388 673.933C379.381 645.089 346.515 625.999 314.161 612.778C270.814 595.066 235.358 583.831 211.384 539.878C198.299 515.888 194.198 489.124 194.685 462.013C194.798 455.748 195.26 443.781 196.977 437.881Z" fill="white"/>
<path d="M302.536 583.317C308.913 586.027 317.319 589.28 323.448 592.154L322.683 592.129L322.422 592.401L321.959 592.252L321.602 592.405L322.456 592.962L322.127 593.303C319.992 592.969 302.547 585.237 299.945 583.875C300.822 583.544 301.614 583.464 302.536 583.317Z" fill="black"/>
<path d="M201.285 458.525C201.683 458.837 201.956 459.065 202.334 459.391L202.792 457.407C204.362 464.403 205.953 471.151 208.21 477.961C208.647 479.28 210.626 484.838 210.68 485.892C214.359 494.418 216.685 501.569 221.086 509.95C240.708 547.311 265.078 566.267 302.536 583.317C301.614 583.464 300.822 583.544 299.945 583.875C298.136 583.346 293.581 581.052 291.711 580.173C251.873 561.454 223.877 529.421 209.649 487.62C207.407 483.048 202.013 463.671 201.285 458.525Z" fill="black"/>
<path d="M196.978 437.881C197.814 435.404 197.048 433.814 197.868 432.562C199.363 440.866 201.331 449.128 202.792 457.408L202.334 459.392C201.956 459.065 201.683 458.838 201.285 458.525C199.542 453.529 198.575 443.589 196.978 437.881Z" fill="black"/>
<path d="M47.0451 345.881L45.8799 344.956C46.4142 344.613 51.8068 344.504 52.8181 344.404C93.8255 340.309 128.491 310.739 155.735 282.313C179.305 257.72 201.742 233.239 233.858 220.622C231.496 240.989 230.991 255.371 235.003 275.828L235.313 277.423C236.462 280.807 237.172 284.627 238.28 288.019C216.228 310.465 203.189 330.51 191.524 359.986C177.317 369.035 155.395 372.377 138.555 373.006C109.676 374.085 78.4941 367.254 53.6425 352.177C52.3889 351.417 48.4044 348.678 47.8654 347.418L47.0451 345.881Z" fill="white"/>
<path d="M235.313 277.423C236.462 280.807 237.172 284.627 238.28 288.019C216.228 310.465 203.189 330.511 191.524 359.986C177.317 369.035 155.395 372.377 138.555 373.006C109.676 374.085 78.4941 367.254 53.6425 352.178C52.389 351.417 48.4044 348.678 47.8655 347.418C49.9274 348.053 52.3974 348.886 54.4499 349.417C69.6324 351.947 85.1498 351.682 100.237 348.633C146.363 341.281 191.831 304.853 230.202 280.328L235.313 277.423Z" fill="white"/>
<path d="M96.5977 347.78C126.897 341.623 149.627 330.862 175.993 314.371C193.948 303.14 210.816 290.363 228.876 279.193L230.202 280.328C191.831 304.853 146.363 341.281 100.237 348.633C85.1499 351.682 69.6325 351.947 54.45 349.417L55.3277 347.913C67.5649 349.715 79.221 350.045 91.4874 348.436C93.0105 348.236 95.12 347.855 96.5977 347.78Z" fill="black"/>
<path d="M235.003 275.828L235.313 277.423L230.202 280.328L228.875 279.193C230.872 277.927 232.906 276.915 235.003 275.828Z" fill="black"/>
<path d="M47.0452 345.881C49.8667 346.858 52.4187 347.32 55.3277 347.913L54.4499 349.417C52.3974 348.886 49.9274 348.053 47.8655 347.418L47.0452 345.881Z" fill="white"/>
<path d="M180.272 449.219C180.945 450.172 181.204 456.151 180.922 457.332C178.693 466.648 175.871 475.836 174.029 485.248C173.123 489.829 172.393 494.444 171.841 499.08C171.366 503.272 171.012 508.608 170.047 512.631C168.83 517.325 167.338 521.991 166.095 526.676C156.39 563.255 154.932 603.017 170.762 638.176C182.56 664.38 203.611 685.932 229.794 698.05C235.046 700.48 239.969 702.331 245.385 704.391C235.598 703.652 228.518 702.648 218.754 701.043C157.396 689.694 127.87 637.674 128.582 578.87C129.196 528.129 151.183 489.179 180.272 449.219Z" fill="white"/>
<path d="M181.488 461.025C182.03 462.572 183.033 472.623 183.352 474.934C184.549 483.632 185.852 490.955 188.221 499.423C191.55 510.907 196.08 522.008 201.736 532.543C203.775 536.417 206.788 540.679 208.556 544.536C210.086 548.47 210.221 553.098 211.057 557.197C219.905 600.578 254.007 631.914 291.859 651.685C302.2 657.086 312.875 661.189 323.492 665.91C326.026 671.15 327.95 676.038 329.92 681.493C327.927 680.14 325.726 678.87 323.65 677.625C314.06 672.39 301.219 667.713 290.993 663.471C279.743 658.805 268.046 654.798 256.909 649.755C230.96 638.004 209.123 621.642 193.22 597.848C171.876 565.915 168.746 529.467 174.688 492.354C176.44 481.411 179.265 471.703 181.488 461.025Z" fill="white"/>
<path d="M179.362 430.4C179.875 431.083 180.163 442.664 180.445 444.617C178.611 447.758 175.38 451.728 173.099 454.699C168.794 460.212 164.597 465.81 160.512 471.488C157.96 475.11 155.298 478.937 152.927 482.694C128.739 521.028 99.3025 559.824 98.2132 607.117C97.7773 626.043 101.334 644.389 110.725 660.946C113.614 666.038 117.07 670.377 120.62 674.957C116.267 671.639 112.047 668.476 107.922 664.866C101.576 659.086 96.0071 652.508 91.3565 645.293C76.4411 622.276 72.2072 593.824 78.0222 567.244C84.0519 539.682 97.715 520.044 113.867 497.796L136.608 466.676C141.895 459.401 148.565 449.262 154.361 442.505C155.558 441.108 167.2 436.692 169.866 435.477C173.557 433.793 175.56 432.845 179.362 430.4Z" fill="white"/>
<path d="M104.422 260.107C115.045 262.635 124.41 262.499 135.139 260.522C185.875 251.169 211.055 191.23 265.014 191.594C280.507 191.698 295.43 196.069 306.688 207.023C302.769 207.1 301.757 206.708 298.524 208.741L298.51 210.631C294.424 207.54 280.826 200.296 276.073 201.487C278.304 202.794 280.095 203.956 281.919 205.843C283.659 207.437 285.793 209.64 287.111 211.597L285.66 212.664C286.749 214.248 287.686 215.401 288.307 217.221L288.188 217.656L287.323 219.217C289.75 220.231 289.9 220.169 290.401 222.767C292.177 231.692 292.507 239.926 292.266 249.007C287.4 249.319 277.42 251.127 273.111 253.282C272.382 252.085 269.538 248.967 268.496 247.795C259.003 237.201 248.313 227.745 236.64 219.615L236.607 218.712C234.55 218.572 232.42 220.419 231.446 219.989L231.429 219.739C210.515 226.675 189.819 246.116 173.867 260.835C170.477 263.462 164.262 272.351 160.271 273.497C140.835 279.074 117.964 274.326 104.422 260.107Z" fill="white"/>
<path d="M274.573 214.091C279.215 214.475 283.874 215.954 288.188 217.657L287.323 219.217C289.75 220.231 289.9 220.169 290.401 222.768C292.177 231.692 292.507 239.926 292.266 249.007C287.401 249.319 277.42 251.127 273.111 253.282C272.382 252.085 269.538 248.968 268.496 247.795C259.004 237.201 248.313 227.745 236.64 219.615C240.803 217.546 246.196 216.967 250.63 215.702C259.518 214.824 264.441 214.541 273.403 215.405C274.577 215.192 274.208 214.929 275.113 214.734L274.587 214.472L274.573 214.091Z" fill="white"/>
<path d="M274.573 214.091C279.214 214.475 283.874 215.954 288.188 217.657L287.323 219.217C282.177 217.042 278.813 216.337 273.403 215.405C274.577 215.192 274.208 214.929 275.113 214.734L274.587 214.472L274.573 214.091Z" fill="black"/>
<path d="M274.246 198.713C282.026 200.042 292.415 203.598 298.524 208.741L298.51 210.631C294.424 207.54 280.827 200.296 276.073 201.487L275.849 201.409C275.308 200.003 275.202 199.913 274.246 198.713Z" fill="black"/>
<path d="M251.323 214.067C256.136 213.488 270.481 212.401 274.573 214.091L274.587 214.472L275.113 214.734C274.208 214.929 274.577 215.192 273.403 215.405C264.441 214.541 259.518 214.824 250.63 215.702L250.141 215.418L251.132 214.951L251.323 214.067Z" fill="black"/>
<path d="M231.429 219.739C236.088 217.238 245.985 215.071 251.323 214.067L251.132 214.951L250.141 215.418L250.63 215.702C246.196 216.967 240.803 217.546 236.64 219.615L236.607 218.712C234.55 218.572 232.42 220.419 231.446 219.989L231.429 219.739Z" fill="black"/>
<path d="M281.919 205.843C283.659 207.437 285.793 209.64 287.111 211.597L285.66 212.664C284.09 210.589 282.658 209.203 280.83 207.356C281.277 206.428 281.198 206.647 281.919 205.843Z" fill="black"/>
<path d="M275.848 201.409L276.073 201.487C278.304 202.794 280.095 203.956 281.919 205.843C281.198 206.647 281.277 206.428 280.83 207.356C279.126 205.671 277.163 204.221 275.271 202.743L275.848 201.409Z" fill="black"/>
<path d="M275.271 202.742C273.801 201.906 271.948 201.002 270.97 199.696L271.098 199.054C272.088 198.394 273.004 198.633 274.246 198.713C275.202 199.913 275.308 200.003 275.848 201.409L275.271 202.742Z" fill="black"/>
<path d="M276.073 201.487C280.826 200.296 294.424 207.54 298.51 210.631C298.799 210.908 299.544 211.661 299.827 211.849C300.437 211.517 300.418 211.649 301.242 211.643C309.58 212.193 311.215 213.689 317.514 218.978C322.288 223.529 329.531 234.347 330.096 240.761C330.187 273.652 315.725 300.315 293.187 323.64C286.729 330.322 275.345 339.701 266.987 343.08L269.165 340.671C268.224 340.578 268.08 340.682 267.383 340.102L267.648 339.319C267.993 337.947 269.346 335.654 270.129 334.418C281.206 316.932 286.832 297 290.875 276.819C290.017 273.063 291.677 268.398 291.834 264.387C292.127 256.903 295.162 244.862 293.084 237.593C293.115 243.32 291.343 271.331 288.782 275.515C288.59 276.019 288.395 276.523 288.195 277.024C287.589 276.81 286.501 273.514 286.068 272.509C283.217 265.879 278.718 260.565 274.679 254.688L274.844 254.266C273.91 254.141 273.856 253.926 273.111 253.282C277.42 251.127 287.4 249.319 292.266 249.007C292.507 239.926 292.177 231.692 290.401 222.767C289.9 220.169 289.75 220.231 287.323 219.217L288.188 217.656L288.307 217.221C287.686 215.401 286.749 214.248 285.66 212.664L287.111 211.597C285.793 209.64 283.659 207.437 281.919 205.843C280.095 203.956 278.304 202.794 276.073 201.487Z" fill="white"/>
<path d="M276.073 201.487C280.826 200.296 294.424 207.54 298.51 210.631C298.799 210.908 299.544 211.661 299.827 211.849C309.694 223.345 311.243 237.203 310.359 251.954C308.624 280.895 294.422 308.29 275.912 330.078C273.947 332.392 269.755 337.306 267.648 339.319C267.993 337.947 269.346 335.654 270.129 334.418C281.206 316.932 286.832 297 290.875 276.819C290.017 273.063 291.677 268.398 291.834 264.387C292.127 256.903 295.162 244.862 293.084 237.593C293.115 243.32 291.343 271.331 288.782 275.515C288.59 276.019 288.395 276.523 288.195 277.024C287.589 276.81 286.501 273.514 286.068 272.509C283.216 265.879 278.718 260.565 274.679 254.688L274.844 254.266C273.91 254.141 273.856 253.926 273.111 253.282C277.42 251.127 287.4 249.319 292.266 249.007C292.507 239.926 292.177 231.692 290.401 222.767C289.9 220.169 289.75 220.231 287.323 219.217L288.188 217.656L288.307 217.221C287.686 215.401 286.749 214.248 285.66 212.664L287.111 211.597C285.793 209.64 283.659 207.437 281.919 205.843C280.095 203.956 278.304 202.794 276.073 201.487Z" fill="white"/>
<path d="M274.845 254.266C280.631 252.82 285.826 251.7 291.746 250.856C291.423 256 290.893 261.13 290.158 266.232C289.796 268.747 288.971 273.162 288.782 275.515C288.59 276.019 288.395 276.523 288.195 277.024C287.589 276.81 286.501 273.514 286.068 272.509C283.217 265.879 278.719 260.565 274.679 254.688L274.845 254.266Z" fill="white"/>
<path d="M287.111 211.597C289.062 214.362 290.82 216.954 291.715 220.276C295.158 236.532 294.995 260.604 290.875 276.819C290.017 273.063 291.677 268.398 291.834 264.387C292.127 256.903 295.162 244.862 293.084 237.593C293.115 243.32 291.343 271.331 288.782 275.515C288.97 273.162 289.795 268.748 290.158 266.232C290.892 261.13 291.423 256 291.746 250.856C285.826 251.7 280.631 252.821 274.844 254.266C273.91 254.141 273.856 253.926 273.111 253.282C277.42 251.127 287.4 249.319 292.266 249.007C292.507 239.926 292.177 231.692 290.401 222.767C289.9 220.169 289.75 220.231 287.323 219.217L288.188 217.656L288.307 217.221C287.686 215.401 286.749 214.248 285.66 212.664L287.111 211.597Z" fill="black"/>
<path d="M299.827 211.849C300.436 211.517 300.418 211.648 301.242 211.643C308.494 218.22 311.749 231.872 312.189 241.396C313.609 272.13 300.514 300.697 282.556 324.904C278.539 330.318 273.221 335.467 269.165 340.671C268.224 340.578 268.08 340.682 267.383 340.102L267.648 339.319C269.755 337.306 273.947 332.392 275.912 330.078C294.422 308.29 308.624 280.895 310.359 251.954C311.243 237.203 309.694 223.345 299.827 211.849Z" fill="black"/>
<path d="M191.761 495.621C177.689 436.95 181.763 376.037 213.651 323.723C222.264 309.592 228.233 302.668 239.202 290.486C242.818 299.109 244.77 302.989 251.168 310.093C245.293 325.467 234.51 343.654 225.416 357.481C199.593 396.746 184.936 441.059 191.348 488.314C191.671 490.693 191.905 492.99 192.517 495.331L191.761 495.621Z" fill="white"/>
<path d="M211.866 550.275C214.123 552.08 218.438 559.025 220.627 561.661C233.183 576.784 249.154 588.892 266.916 597.268C271.693 599.52 276.662 601.524 281.241 604.114C296.608 621.038 312.746 642.756 322.432 663.407C279.014 647.187 233.034 617.243 217.208 571.605C214.947 565.083 212.501 557.192 211.866 550.275Z" fill="white"/>
<path d="M183.544 387.329C183.716 388.896 181.521 399.658 181.191 402.333C180.307 409.865 179.837 417.44 179.784 425.023C163.574 435.182 142.904 439.696 127.184 450.935C105.856 466.182 89.4325 485.546 80.3255 510.218C80.0717 508.64 80.1854 504.545 80.3737 502.873C86.0426 452.499 126.79 415.41 169.995 394.054C174.686 391.735 179.153 389.768 183.544 387.329Z" fill="white"/>
<path d="M188.221 367.01L188.697 367.153C188.6 368.537 187.419 371.909 187.005 373.518C186.005 377.413 185.053 381.296 184.121 385.209C175.114 389.83 167.832 392.968 158.715 398.128C122.596 418.572 92.5432 446.849 81.3325 487.98L81.2102 488.145L80.9952 487.994C81.691 479.782 84.2507 466.446 86.3995 458.311C93.4408 431.657 107.528 406.23 127.043 386.692C129.449 384.284 135.445 379.235 138.376 377.572C154.692 377.309 173.433 373.961 188.221 367.01Z" fill="white"/>
<path d="M138.868 508.386L139.244 509.163C136.08 516.815 133.381 523.532 130.845 531.414C126.122 544.452 125.431 559.002 122.908 572.214C117.91 598.395 113.64 621.472 119.72 647.991C122.642 660.736 126.171 670.081 132.242 681.862C114.214 667.847 105.928 652.929 101.783 630.288C93.8361 586.884 114.82 543.129 138.868 508.386Z" fill="white"/>
<path d="M320.282 213.195C324.138 213.57 327.054 213.757 330.705 215.084C345.471 220.452 357.191 232.635 355.253 249.283C354.115 259.065 349.189 267.817 343.49 275.662C343.289 275.783 343.089 275.904 342.889 276.025L342.553 275.447C342.077 275.471 342.335 275.512 341.805 275.22L341.595 273.388L341.23 273.795C340.531 271.696 340.415 267.294 339.923 264.691C338.449 256.902 336.356 249.138 333.17 241.869C331.983 241.646 332.117 241.592 331.077 240.555L330.688 240.161L330.097 240.761C329.531 234.347 322.288 223.529 317.514 218.978C317.118 217.492 317.007 216.917 316.333 215.562L314.756 214.105L314.962 213.856L316.704 213.921C316.688 213.931 319.134 213.741 320.282 213.195Z" fill="white"/>
<path d="M316.333 215.562L314.756 214.105L314.962 213.856L316.704 213.921C318.645 214.733 321.144 215.638 322.953 216.598C341.537 226.465 344.351 252.765 341.816 270.876C341.719 271.768 341.637 272.485 341.595 273.388L341.23 273.795C340.531 271.696 340.415 267.294 339.923 264.691C338.449 256.902 336.356 249.138 333.17 241.87C331.983 241.646 332.117 241.592 331.077 240.555L330.688 240.161L330.097 240.761C329.531 234.348 322.288 223.529 317.514 218.978C317.118 217.492 317.007 216.917 316.333 215.562Z" fill="white"/>
<path d="M316.333 215.562C324.34 222.484 329.268 232.145 333.17 241.869C331.983 241.646 332.117 241.592 331.077 240.555L330.688 240.161L330.096 240.761C329.531 234.347 322.288 223.529 317.514 218.978C317.118 217.492 317.007 216.917 316.333 215.562Z" fill="black"/>
<path d="M316.704 213.921C316.688 213.931 319.134 213.741 320.282 213.195C322.351 214.276 325.029 215.38 326.877 216.757C342.762 228.585 346.266 253.005 343.411 271.237L341.816 270.876C344.351 252.765 341.537 226.465 322.953 216.598C321.144 215.638 318.645 214.733 316.704 213.921Z" fill="black"/>
<path d="M341.595 273.388C341.636 272.485 341.719 271.768 341.816 270.876L343.411 271.237L342.553 275.447C342.077 275.471 342.335 275.512 341.804 275.22L341.595 273.388Z" fill="white"/>
<path d="M424.321 316.857C424.719 317.765 424.979 319.469 425.381 320.654C427.752 327.624 431.193 337.546 437.984 341.345C439.193 342.021 439.917 341.442 441.152 340.982C441.907 343.891 441.855 353.762 441.964 357.126C442.256 366.111 443.207 371.183 445.736 379.569C443.92 377.167 442.765 375.801 440.7 373.616C434.08 367.466 426.435 363.972 417.743 368.363C413.679 355.581 417.4 328.676 424.321 316.857Z" fill="white"/>
<path d="M424.142 368.219C428.909 368.51 430.679 369.139 434.904 371.398C442.013 375.196 452.385 391.493 454.172 398.998C452.105 400.729 450.845 401.315 448.285 402.069C431.052 403.061 421.739 384.105 418.147 370.043C420.657 368.745 421.439 368.564 424.142 368.219Z" fill="white"/>
<path d="M362.127 196.283C362.172 196.285 362.841 196.287 362.835 196.541C362.796 198.018 362.229 204.443 362.26 205.454C362.468 212.322 364.69 216.38 368.869 221.582C367.814 225.519 361.062 240.769 357.205 241.702L356.888 240.665C355.466 232.833 352.804 228.378 347.295 222.748C347.775 210.982 352.101 202.665 362.127 196.283Z" fill="white"/>
<path d="M377.731 177.733C378.885 179.144 377.207 189.343 384.134 197.798C384.058 201.098 383.494 204.367 382.46 207.501C380.575 213.144 377.884 216.883 372.508 219.611C367.759 211.38 364.536 209.065 365.886 197.811C366.911 189.27 371.055 182.935 377.731 177.733Z" fill="white"/>
<path d="M330.189 178.348C332.328 182.256 335.149 193.209 336.847 198.065C338.585 203.034 340.454 209.172 341.958 214.274C342.434 215.885 342.279 216.309 341.523 217.474C339.431 216.964 336.451 215.36 334.412 214.362C328.847 211.998 324.099 208.711 318.81 206.957C322.701 197.164 325.037 188.09 330.189 178.348Z" fill="white"/>
<path d="M394.742 156.728C395.958 157.012 394.896 161.126 395.022 163.057C395.388 168.677 396.412 171.776 399.601 176.279C397.074 183.993 393.781 190.537 386.753 194.934C386.479 194.696 385.951 194.03 385.777 193.702C381.496 185.614 379.958 174.94 384.614 166.664C387.153 162.149 390.499 159.439 394.742 156.728Z" fill="white"/>
<path d="M412.971 138.541C413.364 145.353 411.089 145.15 413.888 154.096C412.626 156.98 405.788 173.907 401.486 171.35C394.374 158.962 402.381 145.646 412.971 138.541Z" fill="white"/>
<path d="M357.402 244.796C371.669 248.287 384.707 255.668 393.103 268.049C385.061 265.986 364.296 256.234 356.957 251.994L357.402 244.796Z" fill="white"/>
<path d="M426.203 124.537C426.702 125.171 425.267 132.55 425.546 134.362C425.723 135.508 425.782 137.137 426.053 138.487C424.168 143.143 422.224 148.261 417.561 150.862C414.099 140.07 417.266 131.252 426.203 124.537Z" fill="white"/>
<path d="M457.368 342.785C462.355 345.094 464.518 345.614 469.945 346.181C469.991 347.097 469.99 348.014 469.943 348.929C469.775 351.744 468.608 352.984 466.646 354.776C462.714 356.486 458.158 354.704 454.491 353.015C455.131 348.659 455.697 346.877 457.368 342.785Z" fill="white"/>
<path d="M446.334 105.708C446.677 109.047 432.393 131.066 429.455 135.046C429.123 133.666 429.397 129.149 429.634 127.636C431.288 117.086 438.363 111.632 446.334 105.708Z" fill="white"/>
<path d="M483.021 342.146L483.333 342.258C484.183 344.55 481.573 351.206 479.818 352.92C477.267 355.413 474.726 355.236 471.446 355.193L471.219 355.106C470.765 354.442 470.966 354.58 471.603 353.268C472.988 350.415 473.012 348.652 472.885 345.624C476.939 345.028 479.559 344.346 483.021 342.146Z" fill="white"/>
<path d="M446.441 335.759C449.405 337.803 451.926 339.311 455.01 341.117L451.573 349.347L450.81 349.84C448.477 349.325 445.224 345.526 443.832 343.597C444.49 341.121 445.582 338.221 446.441 335.759Z" fill="white"/>
<path d="M436.33 324.873C437.159 325.295 441.936 331.843 443.479 333.471C442.126 334.876 440.293 337.278 439.014 338.861L438.639 338.925C436.248 338.151 433.326 333.376 432.067 331.271C433.509 328.928 434.724 327.109 436.33 324.873Z" fill="white"/>
<path d="M431.091 316.086C431.489 316.037 431.643 316.147 432.077 316.271C433.397 317.931 434.268 319.922 435.228 321.832L430.509 326.59L430.201 326.988C428.889 326.129 426.476 319.112 427.749 316.966C428.792 316.106 429.713 316.204 431.091 316.086Z" fill="white"/>
<path d="M429.203 306.763C430.256 307.801 430.764 310.882 430.524 312.414C429.734 313.395 429.702 313.109 428.099 313.452L427.347 313.454C426.097 311.902 429.043 309.803 429.203 306.763Z" fill="white"/>
<path d="M191.761 495.621L192.517 495.331C193.073 498.302 193.932 501.272 194.248 504.273C193.239 501.47 192.329 498.547 191.761 495.621Z" fill="white"/>
<path d="M141.304 504.591C140.799 505.784 139.876 508.146 139.244 509.163L138.868 508.386C139.714 506.834 140.265 506.029 141.304 504.591Z" fill="white"/>
<path d="M629.827 202.733C673.175 199.03 711.265 231.292 714.744 274.659C718.225 318.025 685.765 355.948 642.381 359.203C599.313 362.434 561.726 330.264 558.272 287.213C554.818 244.162 586.794 206.41 629.827 202.733Z" fill="black"/>
<path d="M634.842 204.802C676.919 203.909 711.734 237.335 712.554 279.414C713.374 321.493 679.887 356.249 637.807 356.996C595.83 357.741 561.177 324.355 560.359 282.379C559.541 240.403 592.867 205.692 634.842 204.802Z" fill="white"/>
<path d="M631.801 215.096C668.22 212.746 699.622 240.422 701.868 276.847C704.114 313.273 676.349 344.596 639.917 346.739C603.632 348.873 572.461 321.244 570.224 284.964C567.987 248.684 595.528 217.435 631.801 215.096Z" fill="black"/>
<path d="M629.117 217.811C664.025 213.971 695.418 239.202 699.178 274.118C702.939 309.035 677.637 340.37 642.712 344.051C607.9 347.72 576.687 322.518 572.938 287.713C569.19 252.909 594.321 221.639 629.117 217.811Z" fill="white"/>
<path d="M632.775 233.346C634.366 233.903 634.254 233.582 635.076 234.699C636.9 247.894 635.057 262.851 636.646 276.144C636.779 277.248 637.443 278.424 637.985 279.395C647.544 284.588 657.221 289.471 666.751 294.651L665.4 303.756C656.951 297.674 648.599 291.155 640.292 284.873C638.272 283.352 636.628 281.624 634.009 281.229C633.48 281.149 632.349 280.395 632.47 279.894C634.485 271.513 632.784 262.083 632.935 253.41C632.98 250.882 632.69 235.837 632.398 235.229L632.775 233.346Z" fill="black"/>
<path d="M651.543 290.001C653.726 290.623 661.373 294.606 663.53 295.78C663.962 296.992 663.672 297.123 663.36 298.629C661.803 298.456 653.367 291.44 651.543 290.001Z" fill="white"/>
<path d="M657.81 318.189C660.657 319.445 664.521 329.413 666.269 332.427C666.747 333.25 666.364 333.53 665.987 334.261C663.07 333.865 659.228 323.317 657.65 320.657C657.113 319.752 657.462 319.036 657.81 318.189Z" fill="black"/>
<path d="M633.879 323.196C634.938 323.265 635.018 323.273 636.035 323.565C636.837 325.042 636.494 335.875 636.428 338.212C635.719 338.202 635.013 338.157 634.304 338.121C633.746 336.787 633.798 325.263 633.879 323.196Z" fill="black"/>
<path d="M680.922 280.233C684.581 280.184 692.313 279.961 695.664 280.397C696.501 281.281 696.222 281.086 696.257 282.716C692.538 282.741 684.92 283.269 681.748 282.337C680.819 281.447 681.105 281.817 680.922 280.233Z" fill="black"/>
<path d="M675.784 303.633C678.384 304.678 686.205 309.107 688.098 311.422C688.453 311.857 688.103 312.25 687.834 313.023C685.829 312.566 677.162 307.439 675.61 305.467C675.309 305.084 675.647 304.248 675.784 303.633Z" fill="black"/>
<path d="M686.92 249.456C687.883 250.157 687.872 250.3 687.775 251.299C686.01 253.359 678.958 256.368 676.22 257.673C675.494 257.522 675.775 257.618 675.156 257.093L675.133 256.273C676.637 254.362 684.406 250.736 686.92 249.456Z" fill="black"/>
<path d="M664.151 229.715C665.507 230.025 665.391 229.85 666.008 230.87C665.925 233.876 662.523 239.58 661.062 242.382C659.921 242.122 660.379 242.394 659.593 241.62C659.324 239.641 663.093 232.11 664.151 229.715Z" fill="black"/>
<path d="M577.735 279.934C581.045 280.029 586.688 279.545 589.523 280.542C590.247 281.468 590.016 280.917 589.902 282.37C586.892 282.48 580.331 283.116 577.858 282.054C577.294 281.067 577.477 281.37 577.735 279.934Z" fill="black"/>
<path d="M605.133 232.268C605.329 232.27 605.524 232.273 605.719 232.275C608.583 232.43 612.381 241.922 612.005 244.12C611.208 244.027 610.717 244.15 610.368 243.668C609.046 241.844 605.193 234.348 605.133 232.268Z" fill="black"/>
<path d="M610.702 318.262C611.676 318.644 611.298 318.344 611.906 319.154C611.862 321.697 608.606 328.404 607.244 330.739C606.808 330.407 605.612 329.658 605.671 329.321C606.122 326.774 609.397 320.184 610.702 318.262Z" fill="black"/>
<path d="M585.583 249.352C588.385 249.745 593.698 253.793 595.917 255.804C596.4 256.241 596.137 256.55 596.006 257.496C593.813 257.655 588.05 253.303 586.187 251.742C585.364 251.051 585.546 250.276 585.583 249.352Z" fill="black"/>
<path d="M594.045 305.09C594.993 305.015 594.641 304.986 595.553 305.294L595.833 306.001C595.047 307.837 588.982 311.118 587.048 312.304L586.685 312.447C585.687 312.042 586.127 312.333 585.484 311.378C586.109 309.411 592.094 306.274 594.045 305.09Z" fill="black"/>
<path d="M633.254 220.621C633.752 220.73 634.848 220.956 634.955 221.479C635.471 224.005 635.863 230.39 634.892 232.624C633.906 232.503 633.946 232.563 633.227 231.893C632.122 229.307 632.809 223.442 633.254 220.621Z" fill="black"/>
<path d="M632.398 235.229C630.551 234.387 628.865 232.754 628.574 230.676L628.975 230.278C630.771 230.622 631.498 231.899 632.775 233.346L632.398 235.229Z" fill="black"/>
<path d="M638.957 229.117C639.812 229.888 639.534 229.42 639.77 230.595C639.127 232.703 637.996 233.554 636.305 234.972C635.981 234.785 635.856 234.573 635.588 234.273C635.628 232.852 637.942 230.371 638.957 229.117Z" fill="black"/>
<path d="M625.12 44.1362C664.399 41.7236 698.181 71.644 700.531 110.927C702.881 150.209 672.906 183.943 633.62 186.23C594.422 188.512 560.781 158.619 558.437 119.426C556.093 80.2325 585.93 46.5433 625.12 44.1362Z" fill="black"/>
<path d="M624.945 46.2333C662.947 43.7159 695.8 72.4706 698.339 110.472C700.879 148.473 672.142 181.342 634.142 183.903C596.113 186.465 563.211 157.701 560.67 119.669C558.129 81.6375 586.912 48.7527 624.945 46.2333Z" fill="white"/>
<path d="M687.053 129.092C680.122 158.099 652.743 177.46 623.083 174.327C593.424 171.194 570.695 146.539 569.978 116.723C569.261 86.9065 590.78 61.1888 620.255 56.6341C649.729 52.0796 678.007 70.1029 686.324 98.7448C687.13 101.519 687.731 104.348 688.125 107.21C689.129 114.507 688.765 121.927 687.053 129.092Z" fill="black"/>
<path d="M685.461 126.964C679.594 155.214 653.65 174.704 624.884 172.472C596.117 170.241 573.49 146.983 572.049 118.167C570.608 89.3506 590.803 63.9513 619.203 58.8614C647.602 53.7715 675.361 70.5761 684.017 98.0991C685.089 101.508 685.841 105.009 686.261 108.557C686.988 114.696 686.718 120.911 685.461 126.964Z" fill="white"/>
<path d="M627.796 74.641L628.905 74.4871C629.33 75.1202 629.309 75.0693 629.343 75.8324L629.549 75.2697C630.176 77.2626 630.282 85.1694 630.433 87.677C630.996 97.0195 630.664 107.505 631.565 116.759C628.805 121.333 618.049 145.269 612.493 143.123C610.352 138.289 627.726 118.189 627.707 115.1C627.637 103.698 628.068 85.5165 627.796 74.641Z" fill="black"/>
<path d="M620.582 130.919C620.606 132.825 617.092 137.924 615.701 139.407C615.27 137.789 619.468 132.503 620.582 130.919Z" fill="white"/>
<path d="M627.796 74.6409C626.183 75.9387 624.035 78.0181 622.173 76.0478C621.798 72.9505 625.721 70.5038 628.302 69.9457L630.387 70.2672C632.644 70.9364 636.462 74.2715 636.038 76.9889C633.397 78.3868 631.376 74.6356 629.768 74.5788L629.549 75.2696L629.343 75.8323C629.309 75.0692 629.33 75.1201 628.905 74.4869L627.796 74.6409Z" fill="black"/>
<path d="M669.048 116.186C672.437 116.194 680.377 115.972 683.321 116.381C683.958 117.207 683.701 117.203 683.582 118.596C678.969 118.444 674.408 118.619 669.77 118.477C668.914 117.688 669.195 117.745 669.048 116.186Z" fill="black"/>
<path d="M577.793 116.019C580.448 115.914 586.944 115.232 588.68 116.808L588.413 117.426C587.204 118.237 587.106 118.185 585.587 118.161C583.06 118.149 575.727 119.094 574.164 117.329L574.385 116.506C575.262 115.994 576.709 116.066 577.793 116.019Z" fill="black"/>
<path d="M627.611 154.434C628.12 154.552 629.144 154.709 629.232 155.274C629.705 158.289 630.2 166.14 629.203 168.825C628.417 168.776 628.467 168.804 627.829 168.346C626.848 165.94 627.319 157.244 627.611 154.434Z" fill="black"/>
<path d="M582.393 88.0946C585.096 88.0239 590.399 92.3534 592.964 93.9227C593.91 94.5014 593.887 95.1947 593.987 96.0644C590.881 96.0637 586.014 92.2324 583.526 90.3503C582.32 89.4386 582.472 89.2518 582.393 88.0946Z" fill="black"/>
<path d="M601.979 67.4764C603.792 68.9345 607.535 75.0141 608.314 77.3863C608.654 78.4246 608.434 78.3106 607.882 79.2173C605.874 78.6604 602.747 72.5024 601.816 70.5107C601.141 69.064 601.441 68.7609 601.979 67.4764Z" fill="black"/>
<path d="M664.732 135.679C666.328 135.991 674.124 140.453 675.474 141.783C675.871 142.175 675.674 142.517 675.62 143.242C672.939 143.302 667.319 139.828 665.179 137.98C664.319 137.237 664.612 136.66 664.732 135.679Z" fill="black"/>
<path d="M676.171 89.9326C677.217 90.5679 676.904 90.1299 677.226 91.2263C676.372 92.4773 668.073 96.0329 666.121 96.9992C665.619 96.897 665.652 96.7963 665.183 96.4058L665.16 95.7125C666.711 93.8045 673.685 90.91 676.171 89.9326Z" fill="black"/>
<path d="M657.06 68.5055C657.84 69.1296 657.545 68.7645 657.86 69.6849C657.364 72.2026 652.937 78.2196 651.304 80.6327C650.636 80.0653 650.6 80.1262 650.356 79.3027C651.015 76.4722 655.121 70.7871 657.06 68.5055Z" fill="black"/>
<path d="M605.668 150.948L606.503 151.333L606.722 152.061C606.005 155.244 602.658 159.74 600.746 162.584C600.253 162.249 600.096 162.019 599.676 161.583C599.486 159.516 604.206 153.137 605.668 150.948Z" fill="black"/>
<path d="M648.561 150.642C649.379 150.782 649.738 150.671 650.167 151.154C651.787 152.982 655.436 158.954 655.549 161.241C654.553 161.13 653.946 161.102 653.329 160.307C651.749 158.273 648.426 153.025 648.561 150.642Z" fill="black"/>
<path d="M592.775 137.108C592.947 137.195 593.475 137.641 593.65 137.781L593.569 138.541C592.036 140.294 586.338 144.095 584.097 145.663C583.274 145.024 583.529 145.425 583.285 144.434C584.464 142.234 590.51 138.588 592.775 137.108Z" fill="black"/>
<path d="M628.302 69.9458C628.176 67.6238 627.71 64.1937 628.031 62.0909L628.556 61.5728L629.259 61.5955C630.478 63.2183 630.321 68.0127 630.387 70.2673L628.302 69.9458Z" fill="black"/>
<path d="M515.867 148.822C543.94 146.449 568.619 167.29 570.981 195.364C573.342 223.438 552.492 248.109 524.416 250.46C496.357 252.809 471.703 231.973 469.343 203.915C466.982 175.855 487.809 151.193 515.867 148.822Z" fill="black"/>
<path d="M514.122 150.872C541.055 147.479 565.625 166.599 568.952 193.54C572.279 220.481 553.098 245.004 526.148 248.264C499.293 251.512 474.875 232.413 471.56 205.566C468.245 178.72 487.284 154.254 514.122 150.872Z" fill="white"/>
<path d="M561.91 206.542C558.262 228.368 538.258 243.584 516.251 241.274C494.243 238.963 477.835 219.924 478.799 197.816C479.764 175.709 497.767 158.17 519.892 157.785C542.017 157.4 560.621 174.3 562.355 196.361C562.622 199.76 562.473 203.179 561.91 206.542Z" fill="black"/>
<path d="M560.169 205.419C557.04 226.921 537.301 241.98 515.737 239.316C494.172 236.652 478.691 217.242 480.89 195.625C483.088 174.008 502.16 158.113 523.819 159.844C545.478 161.576 561.782 180.3 560.517 201.992C560.45 203.139 560.334 204.283 560.169 205.419Z" fill="white"/>
<path d="M514.942 173.433C516.251 173.467 517.342 173.588 517.476 175.113C517.801 181.313 518.874 187.4 519.478 193.56C519.776 196.591 521.605 200.342 520.684 201.956C516.399 209.465 515.312 218.908 510.83 226.358C509.33 228.849 506.633 228.355 504.778 232.477C504.274 232.826 504.166 232.816 503.585 233.043L503.143 232.749C502.896 228.128 516.949 206.429 517.676 201.068C518.753 193.133 514.708 182.015 514.942 173.433Z" fill="black"/>
<path d="M509.43 222.133C509.652 223.895 508.462 226.148 507.409 227.527C507.141 226.158 508.746 223.491 509.43 222.133Z" fill="white"/>
<path d="M519.924 223.003C520.683 223.158 520.659 223.162 521.342 223.538C522.262 225.802 521.716 233.945 521.615 236.756C520.742 236.581 520.882 236.617 520.079 236.304C519.21 233.96 519.749 225.835 519.924 223.003Z" fill="black"/>
<path d="M488.948 179.01C491.515 179.29 495.633 182.87 497.573 184.668C498.609 185.627 498.342 185.407 498.349 186.707L498.156 186.682C495.827 186.395 491.777 182.743 489.841 181.231C488.819 180.433 488.977 180.039 488.948 179.01Z" fill="black"/>
<path d="M545.845 199.104C548.215 199.361 555.977 199.02 557.119 200.194L556.744 200.969C554.406 201.489 549.115 202.204 546.741 201.143C545.901 200.768 545.99 200.005 545.845 199.104Z" fill="black"/>
<path d="M503.283 166.164C505.062 167.001 509.046 175.018 508.705 176.957L507.507 176.732C505.71 175.184 502.631 168.631 503.283 166.164Z" fill="black"/>
<path d="M538.057 165.694C538.693 166.087 538.625 166.096 539.163 166.642C539.319 169.041 536.076 173.995 534.767 176.202C534.336 176.005 534.044 175.775 533.645 175.51C533.442 173.675 536.981 167.772 538.057 165.694Z" fill="black"/>
<path d="M483.958 199.065C486.489 199.055 493.642 198.628 495.137 199.836L495.132 200.939C492.437 201.033 485.91 201.83 484.117 200.539L483.958 199.065Z" fill="black"/>
<path d="M497.5 214.146C498.149 214.682 497.96 214.442 498.285 215.219C497.47 217.376 491.949 220.955 489.98 222.313C489.428 222.064 489.683 222.202 489.287 221.518C489.518 220.019 496.019 215.341 497.5 214.146Z" fill="black"/>
<path d="M544.098 212.6C545.979 212.872 552.042 217.961 552.39 219.879C549.428 219.856 546.477 216.558 544.487 214.549C543.716 213.77 543.987 213.614 544.098 212.6Z" fill="black"/>
<path d="M517.881 164.286C518.611 164.827 518.985 165.533 519.394 166.327L519.967 166.338L520.581 164.785L521.071 164.583C521.17 165.004 521.68 170.096 521.654 170.257C520.609 170.492 519.271 170.361 518.178 170.316C517.644 169.406 517.703 169.871 517.948 168.884C518.814 168.776 518.385 168.772 519.235 168.891C518.532 168.023 517.856 167.133 517.206 166.225C517.071 164.906 516.95 165.554 517.881 164.286Z" fill="black"/>
<path d="M549.905 179.789L550.915 179.906L551.302 180.414C550.849 182.224 546.158 185.509 544.44 186.86C543.764 186.754 544.047 186.792 543.395 186.286C543.569 184.644 548.266 181.239 549.905 179.789Z" fill="black"/>
<path d="M533.739 222.448C536.276 222.62 540.167 229.175 539.895 231.505C538.094 230.675 533.89 224.188 533.739 222.448Z" fill="black"/>
<path d="M560.517 201.992C561.442 200.635 560.359 197.795 561.556 196.178L562.355 196.361C562.622 199.76 562.473 203.179 561.91 206.542C561.575 205.338 561.678 204.922 560.916 204.164L560.605 205.773L560.169 205.42C560.334 204.283 560.45 203.139 560.517 201.992Z" fill="white"/>
<path d="M247.896 362.733C248.975 363.505 251.535 368.562 252.369 370.073C260.782 385.308 270.017 401.2 284.897 410.954C300.924 421.459 315.554 420.933 333.425 416.515C341.772 414.425 349.953 411.727 357.905 408.443C368.988 403.892 380.192 398.459 391.868 395.517C396.783 394.279 402.046 394.142 407.106 393.986C405.573 389.817 400.308 376.794 403.164 373.649L403.956 373.675C405.741 374.587 407.11 380.406 407.905 382.61C409.829 388.024 412.308 393.225 415.302 398.129C422.033 409.11 431.124 418.271 444.695 418.744C457.849 419.202 463.161 403.457 458.034 393.119C457.056 391.148 455.073 387.089 455.535 385.064C456.33 384.014 455.835 384.282 456.953 384.042C458.481 384.553 459.029 385.4 459.947 386.683C472.111 403.708 461.734 429.97 438.17 424.042C423.739 420.412 416.988 411.666 409.473 399.641C401.233 399.668 394.454 400.338 386.639 403.118C375.69 407.012 365.17 411.878 354.307 415.993C342.888 420.318 331.35 423.339 319.203 424.62C324.38 442.243 335.952 460.614 347.544 474.727C354.074 482.678 361.466 490.158 368.405 497.769C377.107 507.196 385.408 516.985 393.287 527.109C427.44 570.633 451.097 619.659 467.746 672.215C470.863 682.053 475.221 695.087 477.339 704.981L467.539 705.19C465.237 695.622 461.915 684.745 458.969 675.363C442.761 623.906 418.984 573.986 385.406 531.531C374.504 517.747 362.803 503.968 350.689 491.25C332.056 471.689 318.792 451.176 310.724 425.153C299.776 424.476 292.43 422.432 282.867 416.833C264.721 406.209 252.628 382.863 247.896 362.733Z" fill="black"/>
<path d="M350.841 341.646C366.257 341.757 369.293 353.647 359.305 363.774C352.383 370.792 341.931 375.608 332.011 375.836C319.21 375.412 311.94 367.233 321.498 355.818C328.546 347.402 340.014 342.651 350.841 341.646Z" fill="black"/>
<path d="M349.247 344.091C360.623 342.468 367.046 350.619 359.341 360.426C353.084 368.391 343.102 372.34 333.257 373.666C322.825 374.019 314.076 368.356 322.576 357.786C328.887 349.939 339.374 345.315 349.247 344.091Z" fill="white"/>
<path d="M548.682 344.933C551.31 356.308 556.338 368.533 566.707 375.054C567.338 375.448 567.979 375.827 568.629 376.191C558.064 385.189 551.802 393.97 548.972 407.938C548.561 407.185 548.259 406.546 547.895 405.773L547.098 405.446C546.788 405.589 546.098 405.88 545.844 406.053C545.086 401.983 544.187 398.759 542.559 394.885C539.768 388.246 535.007 381.215 528.083 378.427C527.112 378.036 527.07 378.119 526.157 377.484C526.45 376.596 526.742 376.699 527.808 376.066C536.221 370.216 541.454 363.656 545.396 354.089C546.621 351.118 547.522 347.756 548.682 344.933Z" fill="white"/>
<path d="M548.682 344.933C551.31 356.308 556.338 368.533 566.707 375.054C567.339 375.448 567.979 375.827 568.629 376.191C558.065 385.189 551.803 393.97 548.973 407.938C548.561 407.185 548.259 406.546 547.895 405.773C550.23 393.448 556.609 384.914 565.491 376.549C556.068 367.925 551.943 362.983 548.463 350.527C545.103 361.18 538.255 370.893 528.866 377.046L527.809 376.066C536.221 370.216 541.454 363.656 545.397 354.089C546.621 351.118 547.522 347.756 548.682 344.933Z" fill="black"/>
<path d="M527.808 376.066L528.866 377.046C538.729 382.453 546.759 394.08 547.098 405.446C546.788 405.589 546.098 405.88 545.844 406.053C545.086 401.983 544.187 398.759 542.559 394.885C539.768 388.246 535.007 381.215 528.083 378.427C527.112 378.035 527.07 378.119 526.157 377.484C526.45 376.596 526.742 376.699 527.808 376.066Z" fill="black"/>
<path d="M247.246 251.029C249.186 251.963 271.576 283.341 274.052 287.847L272.898 287.384C268.822 285.731 267.921 286.569 266.303 290.469C265.479 294.025 265.695 294.965 266.369 298.435C254.446 293.047 244.833 262.442 247.246 251.029Z" fill="black"/>
<path d="M250.367 258.19C251.407 259.131 254.609 263.517 255.739 265.007C260.557 271.266 265.202 277.657 269.668 284.171C267.46 285.43 266.579 285.961 265.254 288.116C264.45 289.831 264.149 291.218 263.678 293.031C255.385 282.981 252.515 270.7 250.367 258.19Z" fill="white"/>
<path d="M514.891 44.3966C515.928 45.9576 517.122 53.557 518.28 56.0646C520.719 61.3445 523.816 63.2276 528.864 65.3562C521.31 69.6617 518.627 74.2497 516.75 82.6912C516.324 84.6083 516.487 86.6744 515.727 88.4375C514.472 87.1068 514.379 83.9919 513.813 81.8523C511.525 73.2058 508.592 70.4845 501.261 65.9894C510.415 61.2284 509.872 58.5527 513.075 49.0344C513.606 47.457 513.958 45.7743 514.891 44.3966Z" fill="black"/>
<path d="M514.339 49.3253C515.038 50.0882 516.454 55.0203 516.997 56.3797C518.982 61.346 521.16 63.484 525.801 65.6524C519.352 69.4887 518.053 74.0717 515.685 80.6846L515.567 80.721C514.664 80.3215 513.148 74.4221 511.482 72.3084C508.594 68.6455 508.386 68.692 504.476 66.3023C511.112 61.7405 512.493 57.1312 514.339 49.3253Z" fill="white"/>
<path d="M595.046 425.554L595.767 425.98C597.915 434.634 601.057 437.124 608.105 441.452C600.406 446.869 597.978 453.112 595.835 461.83C593.598 460.767 593.551 447.2 582.685 441.29C590.591 438.394 592.844 432.952 595.046 425.554Z" fill="black"/>
<path d="M595.22 429.546C595.642 429.963 595.517 429.777 595.786 430.28C599.303 436.858 599.653 437.574 605.717 441.465C600.169 447.06 598.12 449.064 595.944 456.707C595.106 456.728 593.557 451.889 593.093 450.739C591.39 446.517 588.961 444.35 585.573 441.543C590.867 437.58 592.691 435.668 595.22 429.546Z" fill="white"/>
<path d="M456.608 285.24C467.895 286.169 474.89 306.738 462.623 307.779C452.47 305.493 443.45 288.082 456.608 285.24Z" fill="black"/>
<path d="M455.621 289.377C462.029 290.014 468.848 299.546 463.751 304.277C456.567 304.354 450.154 293.195 455.621 289.377Z" fill="white"/>
<path d="M637.899 381.492L638.506 382.033C638.59 382.688 638.696 383.34 638.825 383.988C640.071 390.061 645.522 394.719 650.465 397.896C644.237 403.422 640.781 408.722 639.209 416.929C637.452 417.039 637.305 411.967 636.477 409.756C634.336 404.04 632.08 400.974 626.979 397.734C634.416 393.357 636.396 389.608 637.899 381.492Z" fill="black"/>
<path d="M638.13 386.548C640.492 391.469 643.55 394.953 648.084 397.933C642.845 403.756 642.19 404.58 639.053 411.662L638.729 411.662C638.247 411.151 638.247 411.275 638.067 410.665C636.231 404.447 634.091 401.929 629.445 397.558C634.038 394.644 636.297 391.565 638.13 386.548Z" fill="white"/>
<path d="M345.063 296.091C353.258 295.711 360.892 301.501 364.042 308.872C364.485 309.911 364.629 310.536 364.168 311.537L363.372 311.661C362.417 310.369 361.368 309.059 360.415 307.771C355.61 301.257 344.884 296.663 339.579 305.253C335.733 311.478 336.125 317.726 337.748 324.601C337.86 324.987 337.806 325.321 337.8 325.753C337.443 326.129 336.789 326.584 336.332 326.215C331.878 322.623 329.914 322.713 324.26 323.575L323.962 323.24C325.495 320.357 330.232 321.117 332.831 321.556C332.278 318.565 332.255 316.639 332.217 313.601C328.861 312.951 323.566 311.097 323.024 307.083C324.761 306.081 326.48 309.823 328.423 310.644C329.701 311.185 331.026 311.355 332.373 311.593C334.188 303.323 336.888 299.013 345.063 296.091Z" fill="black"/>
<path d="M547.098 405.446L547.895 405.773C548.259 406.546 548.561 407.185 548.972 407.938C548.728 409.451 548.69 410.68 547.853 411.93L547.372 411.948C546.396 410.194 546.217 408.088 545.844 406.053C546.098 405.88 546.788 405.589 547.098 405.446Z" fill="black"/>
</svg>
